999
dxfrw 0.6.3
  0
SECTION
  2
HEADER
  9
$ACADVER
  1
AC1021
  9
$DWGCODEPAGE
  3
ANSI_1252
  9
$INSBASE
 10
0
 20
0
 30
0
  9
$EXTMIN
 10
-29
 20
-14.1
 30
0
  9
$EXTMAX
 10
45.8
 20
37.4
 30
0
  9
$LIMMIN
 10
0
 20
0
  9
$LIMMAX
 10
420
 20
297
  9
$ORTHOMODE
 70
    0
  9
$REGENMODE
 70
    1
  9
$FILLMODE
 70
    1
  9
$QTEXTMODE
 70
    0
  9
$MIRRTEXT
 70
    0
  9
$LTSCALE
 40
1
  9
$ATTMODE
 70
    0
  9
$TEXTSIZE
 40
2.5
  9
$TRACEWID
 40
15.68
  9
$TEXTSTYLE
  7
STANDARD
  9
$CLAYER
  8
SD_card_SPI
  9
$CELTYPE
  6
BYLAYER
  9
$CECOLOR
 62
  256
  9
$CELTSCALE
 40
1
  9
$DISPSILH
 70
    0
  9
$DIMSCALE
 40
2.5
  9
$DIMASZ
 40
2.5
  9
$DIMEXO
 40
0.625
  9
$DIMDLI
 40
3.75
  9
$DIMRND
 40
0
  9
$DIMDLE
 40
0
  9
$DIMEXE
 40
1.25
  9
$DIMTP
 40
0
  9
$DIMTM
 40
0
  9
$DIMTXT
 40
2.5
  9
$DIMCEN
 40
2.5
  9
$DIMTSZ
 40
0
  9
$DIMTOL
 70
    0
  9
$DIMLIM
 70
    0
  9
$DIMTIH
 70
    0
  9
$DIMTOH
 70
    0
  9
$DIMSE1
 70
    0
  9
$DIMSE2
 70
    0
  9
$DIMTAD
 70
    1
  9
$DIMZIN
 70
    8
  9
$DIMBLK
  1

  9
$DIMASO
 70
    1
  9
$DIMSHO
 70
    1
  9
$DIMPOST
  1

  9
$DIMAPOST
  1

  9
$DIMALT
 70
    0
  9
$DIMALTD
 70
    3
  9
$DIMALTF
 40
0.03937
  9
$DIMLFAC
 40
1
  9
$DIMTOFL
 70
    1
  9
$DIMTVP
 40
0
  9
$DIMTIX
 70
    0
  9
$DIMSOXD
 70
    0
  9
$DIMSAH
 70
    0
  9
$DIMBLK1
  1

  9
$DIMBLK2
  1

  9
$DIMSTYLE
  2
STANDARD
  9
$DIMCLRD
 70
    0
  9
$DIMCLRE
 70
    0
  9
$DIMCLRT
 70
    0
  9
$DIMTFAC
 40
1
  9
$DIMGAP
 40
0.625
  9
$DIMJUST
 70
    0
  9
$DIMSD1
 70
    0
  9
$DIMSD2
 70
    0
  9
$DIMTOLJ
 70
    0
  9
$DIMTZIN
 70
    8
  9
$DIMALTZ
 70
    0
  9
$DIMALTTZ
 70
    0
  9
$DIMUPT
 70
    0
  9
$DIMDEC
 70
    2
  9
$DIMTDEC
 70
    2
  9
$DIMALTU
 70
    2
  9
$DIMALTTD
 70
    3
  9
$DIMTXSTY
  7
STANDARD
  9
$DIMAUNIT
 70
    0
  9
$DIMADEC
 70
    0
  9
$DIMALTRND
 40
0
  9
$DIMAZIN
 70
    0
  9
$DIMDSEP
 70
   44
  9
$DIMATFIT
 70
    3
  9
$DIMFRAC
 70
    0
  9
$DIMLDRBLK
  1
STANDARD
  9
$DIMLUNIT
 70
    2
  9
$DIMLWD
 70
   -2
  9
$DIMLWE
 70
   -2
  9
$DIMTMOVE
 70
    0
  9
$DIMFXL
 40
1
  9
$DIMFXLON
 70
    0
  9
$DIMJOGANG
 40
0.7854
  9
$DIMTFILL
 70
    0
  9
$DIMTFILLCLR
 70
    0
  9
$DIMARCSYM
 70
    0
  9
$DIMLTYPE
  6

  9
$DIMLTEX1
  6

  9
$DIMLTEX2
  6

  9
$LUNITS
 70
    2
  9
$LUPREC
 70
    4
  9
$SKETCHINC
 40
1
  9
$FILLETRAD
 40
0
  9
$AUNITS
 70
    0
  9
$AUPREC
 70
    2
  9
$MENU
  1
.
  9
$ELEVATION
 40
0
  9
$PELEVATION
 40
0
  9
$THICKNESS
 40
0
  9
$LIMCHECK
 70
    0
  9
$CHAMFERA
 40
0
  9
$CHAMFERB
 40
0
  9
$CHAMFERC
 40
0
  9
$CHAMFERD
 40
0
  9
$SKPOLY
 70
    0
  9
$USRTIMER
 70
    1
  9
$ANGBASE
 50
0
  9
$ANGDIR
 70
    0
  9
$PDMODE
 70
   34
  9
$PDSIZE
 40
0
  9
$PLINEWID
 40
0
  9
$SPLFRAME
 70
    0
  9
$SPLINETYPE
 70
    2
  9
$SPLINESEGS
 70
    8
  9
$HANDSEED
  5
20000
  9
$SURFTAB1
 70
    6
  9
$SURFTAB2
 70
    6
  9
$SURFTYPE
 70
    6
  9
$SURFU
 70
    6
  9
$SURFV
 70
    6
  9
$UCSBASE
  2

  9
$UCSNAME
  2

  9
$UCSORG
 10
0
 20
0
 30
0
  9
$UCSXDIR
 10
1
 20
0
 30
0
  9
$UCSYDIR
 10
0
 20
1
 30
0
  9
$UCSORTHOREF
  2

  9
$UCSORTHOVIEW
 70
    0
  9
$UCSORGTOP
 10
0
 20
0
 30
0
  9
$UCSORGBOTTOM
 10
0
 20
0
 30
0
  9
$UCSORGLEFT
 10
0
 20
0
 30
0
  9
$UCSORGRIGHT
 10
0
 20
0
 30
0
  9
$UCSORGFRONT
 10
0
 20
0
 30
0
  9
$UCSORGBACK
 10
0
 20
0
 30
0
  9
$PUCSBASE
  2

  9
$PUCSNAME
  2

  9
$PUCSORG
 10
0
 20
0
 30
0
  9
$PUCSXDIR
 10
1
 20
0
 30
0
  9
$PUCSYDIR
 10
0
 20
1
 30
0
  9
$PUCSORTHOREF
  2

  9
$PUCSORTHOVIEW
 70
    0
  9
$PUCSORGTOP
 10
0
 20
0
 30
0
  9
$PUCSORGBOTTOM
 10
0
 20
0
 30
0
  9
$PUCSORGLEFT
 10
0
 20
0
 30
0
  9
$PUCSORGRIGHT
 10
0
 20
0
 30
0
  9
$PUCSORGFRONT
 10
0
 20
0
 30
0
  9
$PUCSORGBACK
 10
0
 20
0
 30
0
  9
$USERI1
 70
    0
  9
$USERI2
 70
    0
  9
$USERI3
 70
    0
  9
$USERI4
 70
    0
  9
$USERI5
 70
    0
  9
$USERR1
 40
0
  9
$USERR2
 40
0
  9
$USERR3
 40
0
  9
$USERR4
 40
0
  9
$USERR5
 40
0
  9
$WORLDVIEW
 70
    1
  9
$SHADEDGE
 70
    3
  9
$SHADEDIF
 70
   70
  9
$TILEMODE
 70
    1
  9
$MAXACTVP
 70
   64
  9
$PINSBASE
 10
0
 20
0
 30
0
  9
$PLIMCHECK
 70
    0
  9
$PEXTMIN
 10
0
 20
0
 30
0
  9
$PEXTMAX
 10
0
 20
0
 30
0
  9
$GRIDMODE
 70
    1
  9
$SNAPSTYLE
 70
    0
  9
$PLIMMIN
 10
0
 20
0
  9
$PLIMMAX
 10
210
 20
297
  9
$UNITMODE
 70
    0
  9
$VISRETAIN
 70
    1
  9
$PLINEGEN
 70
    0
  9
$PSLTSCALE
 70
    1
  9
$TREEDEPTH
 70
 3020
  9
$CMLSTYLE
  2
Standard
  9
$CMLJUST
 70
    0
  9
$CMLSCALE
 40
20
  9
$PROXYGRAPHICS
 70
    1
  9
$MEASUREMENT
 70
    1
  9
$CELWEIGHT
370
   -1
  9
$ENDCAPS
280
    0
  9
$JOINSTYLE
280
    0
  9
$LWDISPLAY
290
    0
  9
$INSUNITS
 70
    4
  9
$HYPERLINKBASE
  1

  9
$STYLESHEET
  1

  9
$XEDIT
290
    1
  9
$CEPSNTYPE
380
    0
  9
$PSTYLEMODE
290
    1
  9
$EXTNAMES
290
    1
  9
$PSVPSCALE
 40
1
  9
$OLESTARTUP
290
    0
  9
$SORTENTS
280
  127
  9
$INDEXCTL
280
    0
  9
$HIDETEXT
280
    1
  9
$XCLIPFRAME
290
    0
  9
$HALOGAP
280
    0
  9
$OBSCOLOR
 70
  257
  9
$OBSLTYPE
280
    0
  9
$INTERSECTIONDISPLAY
280
    0
  9
$INTERSECTIONCOLOR
 70
  257
  9
$DIMASSOC
280
    1
  9
$PROJECTNAME
  1

  9
$CAMERADISPLAY
290
    0
  9
$LENSLENGTH
 40
50
  9
$CAMERAHEIGHT
 40
0
  9
$STEPSPERSEC
 40
2
  9
$STEPSIZE
 40
50
  9
$3DDWFPREC
 40
2
  9
$PSOLWIDTH
 40
5
  9
$PSOLHEIGHT
 40
80
  9
$LOFTANG1
 40
1.570796326794897
  9
$LOFTANG2
 40
1.570796326794897
  9
$LOFTMAG1
 40
0
  9
$LOFTMAG2
 40
0
  9
$LOFTPARAM
 70
    7
  9
$LOFTNORMALS
280
    1
  9
$LATITUDE
 40
1
  9
$LONGITUDE
 40
1
  9
$NORTHDIRECTION
 40
0
  9
$TIMEZONE
 70
-8000
  9
$LIGHTGLYPHDISPLAY
280
    1
  9
$TILEMODELIGHTSYNCH
280
    1
  9
$SOLIDHIST
280
    1
  9
$SHOWHIST
280
    1
  9
$DWFFRAME
280
    2
  9
$DGNFRAME
280
    0
  9
$REALWORLDSCALE
290
    1
  9
$INTERFERECOLOR
 62
    1
  9
$CSHADOW
280
    0
  9
$SHADOWPLANELOCATION
 40
0
  0
ENDSEC
  0
SECTION
  2
CLASSES
  0
ENDSEC
  0
SECTION
  2
TABLES
  0
TABLE
  2
VPORT
  5
8
330
0
100
AcDbSymbolTable
 70
    1
  0
VPORT
  5
31
330
2
100
AcDbSymbolTableRecord
100
AcDbViewportTableRecord
  2
*ACTIVE
 70
    0
 10
0
 20
0
 11
1
 21
1
 12
30.13940264703162
 22
9.345409437277404
 13
0
 23
0
 14
10
 24
10
 15
10
 25
10
 16
0
 26
0
 36
1
 17
0
 27
0
 37
0
 40
29.99309486719167
 41
2.525609756097561
 42
50
 43
0
 44
0
 50
0
 51
0
 71
    0
 72
  100
 73
    1
 74
    3
 75
    0
 76
    1
 77
    0
 78
    0
281
    0
 65
    1
110
0
120
0
130
0
111
1
121
0
131
0
112
0
122
1
132
0
 79
    0
146
0
348
10020
 60
    7
 61
    5
292
1
282
    1
141
0
142
0
 63
  250
421
3358443
  0
ENDTAB
  0
TABLE
  2
LTYPE
  5
5
330
0
100
AcDbSymbolTable
 70
    4
  0
LTYPE
  5
14
330
5
100
AcDbSymbolTableRecord
100
AcDbLinetypeTableRecord
  2
ByBlock
 70
    0
  3

 72
   65
 73
    0
 40
0
  0
LTYPE
  5
15
330
5
100
AcDbSymbolTableRecord
100
AcDbLinetypeTableRecord
  2
ByLayer
 70
    0
  3

 72
   65
 73
    0
 40
0
  0
LTYPE
  5
16
330
5
100
AcDbSymbolTableRecord
100
AcDbLinetypeTableRecord
  2
Continuous
 70
    0
  3
Solid line
 72
   65
 73
    0
 40
0
  0
LTYPE
  5
32
330
5
100
AcDbSymbolTableRecord
100
AcDbLinetypeTableRecord
  2
DOT
 70
    0
  3
Dot . . . . . . . . . . . . . . . . . . . . . .
 72
   65
 73
    2
 40
6.35
 49
0
 74
    0
 49
-6.35
 74
    0
  0
LTYPE
  5
33
330
5
100
AcDbSymbolTableRecord
100
AcDbLinetypeTableRecord
  2
DOTTINY
 70
    0
  3
Dot (.15x) .....................................
 72
   65
 73
    2
 40
0.9525
 49
0
 74
    0
 49
-0.9525
 74
    0
  0
LTYPE
  5
34
330
5
100
AcDbSymbolTableRecord
100
AcDbLinetypeTableRecord
  2
DOT2
 70
    0
  3
Dot (.5x) .....................................
 72
   65
 73
    2
 40
3.175
 49
0
 74
    0
 49
-3.175
 74
    0
  0
LTYPE
  5
35
330
5
100
AcDbSymbolTableRecord
100
AcDbLinetypeTableRecord
  2
DOTX2
 70
    0
  3
Dot (2x) .  .  .  .  .  .  .  .  .  .  .  .  .
 72
   65
 73
    2
 40
12.7
 49
0
 74
    0
 49
-12.7
 74
    0
  0
LTYPE
  5
36
330
5
100
AcDbSymbolTableRecord
100
AcDbLinetypeTableRecord
  2
DASHED
 70
    0
  3
Dashed _ _ _ _ _ _ _ _ _ _ _ _ _ _ _ _ _
 72
   65
 73
    2
 40
19.05
 49
12.7
 74
    0
 49
-6.35
 74
    0
  0
LTYPE
  5
37
330
5
100
AcDbSymbolTableRecord
100
AcDbLinetypeTableRecord
  2
DASHEDTINY
 70
    0
  3
Dashed (.15x) _ _ _ _ _ _ _ _ _ _ _ _ _ _ _ _ _
 72
   65
 73
    2
 40
2.8575
 49
1.905
 74
    0
 49
-0.9525
 74
    0
  0
LTYPE
  5
38
330
5
100
AcDbSymbolTableRecord
100
AcDbLinetypeTableRecord
  2
DASHED2
 70
    0
  3
Dashed (.5x) _ _ _ _ _ _ _ _ _ _ _ _ _ _ _ _ _
 72
   65
 73
    2
 40
9.524999999999999
 49
6.35
 74
    0
 49
-3.175
 74
    0
  0
LTYPE
  5
39
330
5
100
AcDbSymbolTableRecord
100
AcDbLinetypeTableRecord
  2
DASHEDX2
 70
    0
  3
Dashed (2x) ____  ____  ____  ____  ____  ___
 72
   65
 73
    2
 40
38.09999999999999
 49
25.4
 74
    0
 49
-12.7
 74
    0
  0
LTYPE
  5
3A
330
5
100
AcDbSymbolTableRecord
100
AcDbLinetypeTableRecord
  2
DASHDOT
 70
    0
  3
Dash dot __ . __ . __ . __ . __ . __ . __ . __
 72
   65
 73
    4
 40
25.4
 49
12.7
 74
    0
 49
-6.35
 74
    0
 49
0
 74
    0
 49
-6.35
 74
    0
  0
LTYPE
  5
3B
330
5
100
AcDbSymbolTableRecord
100
AcDbLinetypeTableRecord
  2
DASHDOTTINY
 70
    0
  3
Dash dot (.15x) _._._._._._._._._._._._._._._.
 72
   65
 73
    4
 40
3.81
 49
1.905
 74
    0
 49
-0.9525
 74
    0
 49
0
 74
    0
 49
-0.9525
 74
    0
  0
LTYPE
  5
3C
330
5
100
AcDbSymbolTableRecord
100
AcDbLinetypeTableRecord
  2
DASHDOT2
 70
    0
  3
Dash dot (.5x) _._._._._._._._._._._._._._._.
 72
   65
 73
    4
 40
12.7
 49
6.35
 74
    0
 49
-3.175
 74
    0
 49
0
 74
    0
 49
-3.175
 74
    0
  0
LTYPE
  5
3D
330
5
100
AcDbSymbolTableRecord
100
AcDbLinetypeTableRecord
  2
DASHDOTX2
 70
    0
  3
Dash dot (2x) ____  .  ____  .  ____  .  ___
 72
   65
 73
    4
 40
50.8
 49
25.4
 74
    0
 49
-12.7
 74
    0
 49
0
 74
    0
 49
-12.7
 74
    0
  0
LTYPE
  5
3E
330
5
100
AcDbSymbolTableRecord
100
AcDbLinetypeTableRecord
  2
DIVIDE
 70
    0
  3
Divide ____ . . ____ . . ____ . . ____ . . ____
 72
   65
 73
    6
 40
31.75
 49
12.7
 74
    0
 49
-6.35
 74
    0
 49
0
 74
    0
 49
-6.35
 74
    0
 49
0
 74
    0
 49
-6.35
 74
    0
  0
LTYPE
  5
3F
330
5
100
AcDbSymbolTableRecord
100
AcDbLinetypeTableRecord
  2
DIVIDETINY
 70
    0
  3
Divide (.15x) __..__..__..__..__..__..__..__.._
 72
   65
 73
    6
 40
4.7625
 49
1.905
 74
    0
 49
-0.9525
 74
    0
 49
0
 74
    0
 49
-0.9525
 74
    0
 49
0
 74
    0
 49
-0.9525
 74
    0
  0
LTYPE
  5
40
330
5
100
AcDbSymbolTableRecord
100
AcDbLinetypeTableRecord
  2
DIVIDE2
 70
    0
  3
Divide (.5x) __..__..__..__..__..__..__..__.._
 72
   65
 73
    6
 40
15.875
 49
6.35
 74
    0
 49
-3.175
 74
    0
 49
0
 74
    0
 49
-3.175
 74
    0
 49
0
 74
    0
 49
-3.175
 74
    0
  0
LTYPE
  5
41
330
5
100
AcDbSymbolTableRecord
100
AcDbLinetypeTableRecord
  2
DIVIDEX2
 70
    0
  3
Divide (2x) ________  .  .  ________  .  .  _
 72
   65
 73
    6
 40
63.5
 49
25.4
 74
    0
 49
-12.7
 74
    0
 49
0
 74
    0
 49
-12.7
 74
    0
 49
0
 74
    0
 49
-12.7
 74
    0
  0
LTYPE
  5
42
330
5
100
AcDbSymbolTableRecord
100
AcDbLinetypeTableRecord
  2
BORDER
 70
    0
  3
Border __ __ . __ __ . __ __ . __ __ . __ __ .
 72
   65
 73
    6
 40
44.45
 49
12.7
 74
    0
 49
-6.35
 74
    0
 49
12.7
 74
    0
 49
-6.35
 74
    0
 49
0
 74
    0
 49
-6.35
 74
    0
  0
LTYPE
  5
43
330
5
100
AcDbSymbolTableRecord
100
AcDbLinetypeTableRecord
  2
BORDERTINY
 70
    0
  3
Border (.15x) __.__.__.__.__.__.__.__.__.__.__.
 72
   65
 73
    6
 40
6.6675
 49
1.905
 74
    0
 49
-0.9525
 74
    0
 49
1.905
 74
    0
 49
-0.9525
 74
    0
 49
0
 74
    0
 49
-0.9525
 74
    0
  0
LTYPE
  5
44
330
5
100
AcDbSymbolTableRecord
100
AcDbLinetypeTableRecord
  2
BORDER2
 70
    0
  3
Border (.5x) __.__.__.__.__.__.__.__.__.__.__.
 72
   65
 73
    6
 40
22.225
 49
6.35
 74
    0
 49
-3.175
 74
    0
 49
6.35
 74
    0
 49
-3.175
 74
    0
 49
0
 74
    0
 49
-3.175
 74
    0
  0
LTYPE
  5
45
330
5
100
AcDbSymbolTableRecord
100
AcDbLinetypeTableRecord
  2
BORDERX2
 70
    0
  3
Border (2x) ____  ____  .  ____  ____  .  ___
 72
   65
 73
    6
 40
88.89999999999999
 49
25.4
 74
    0
 49
-12.7
 74
    0
 49
25.4
 74
    0
 49
-12.7
 74
    0
 49
0
 74
    0
 49
-12.7
 74
    0
  0
LTYPE
  5
46
330
5
100
AcDbSymbolTableRecord
100
AcDbLinetypeTableRecord
  2
CENTER
 70
    0
  3
Center ____ _ ____ _ ____ _ ____ _ ____ _ ____
 72
   65
 73
    4
 40
50.8
 49
31.75
 74
    0
 49
-6.35
 74
    0
 49
6.35
 74
    0
 49
-6.35
 74
    0
  0
LTYPE
  5
47
330
5
100
AcDbSymbolTableRecord
100
AcDbLinetypeTableRecord
  2
CENTERTINY
 70
    0
  3
Center (.15x) ___ _ ___ _ ___ _ ___ _ ___ _ ___
 72
   65
 73
    4
 40
7.619999999999999
 49
4.7625
 74
    0
 49
-0.9525
 74
    0
 49
0.9525
 74
    0
 49
-0.9525
 74
    0
  0
LTYPE
  5
48
330
5
100
AcDbSymbolTableRecord
100
AcDbLinetypeTableRecord
  2
CENTER2
 70
    0
  3
Center (.5x) ___ _ ___ _ ___ _ ___ _ ___ _ ___
 72
   65
 73
    4
 40
28.575
 49
19.05
 74
    0
 49
-3.175
 74
    0
 49
3.175
 74
    0
 49
-3.175
 74
    0
  0
LTYPE
  5
49
330
5
100
AcDbSymbolTableRecord
100
AcDbLinetypeTableRecord
  2
CENTERX2
 70
    0
  3
Center (2x) ________  __  ________  __  _____
 72
   65
 73
    4
 40
101.6
 49
63.5
 74
    0
 49
-12.7
 74
    0
 49
12.7
 74
    0
 49
-12.7
 74
    0
  0
ENDTAB
  0
TABLE
  2
LAYER
  5
2
330
0
100
AcDbSymbolTable
 70
    1
  0
LAYER
  5
10
330
2
100
AcDbSymbolTableRecord
100
AcDbLayerTableRecord
  2
0
 70
    0
 62
    7
  6
CONTINUOUS
370
    0
390
F
  0
LAYER
  5
4A
330
2
100
AcDbSymbolTableRecord
100
AcDbLayerTableRecord
  2
BM280
 70
    0
 62
   16
420
8388608
  6
CONTINUOUS
370
    0
390
F
  0
LAYER
  5
4B
330
2
100
AcDbSymbolTableRecord
100
AcDbLayerTableRecord
  2
GPS
 70
    0
 62
   96
420
32768
  6
CONTINUOUS
370
    0
390
F
  0
LAYER
  5
4C
330
2
100
AcDbSymbolTableRecord
100
AcDbLayerTableRecord
  2
GY9265
 70
    0
 62
   56
420
8421376
  6
CONTINUOUS
370
    0
390
F
  0
LAYER
  5
4D
330
2
100
AcDbSymbolTableRecord
100
AcDbLayerTableRecord
  2
RC_reciever
 70
    0
 62
  176
420
  128
  6
CONTINUOUS
370
    0
390
F
  0
LAYER
  5
4E
330
2
100
AcDbSymbolTableRecord
100
AcDbLayerTableRecord
  2
SDMMC_card
 70
    5
 62
  216
420
8388736
  6
CONTINUOUS
370
    0
390
F
  0
LAYER
  5
4F
330
2
100
AcDbSymbolTableRecord
100
AcDbLayerTableRecord
  2
SD_card_SPI
 70
    0
 62
    6
  6
CONTINUOUS
370
    0
390
F
  0
LAYER
  5
50
330
2
100
AcDbSymbolTableRecord
100
AcDbLayerTableRecord
  2
Servo
 70
    0
 62
    5
  6
CONTINUOUS
370
    0
390
F
  0
LAYER
  5
51
330
2
100
AcDbSymbolTableRecord
100
AcDbLayerTableRecord
  2
esp32_alt_names
 70
    0
 62
    8
  6
CONTINUOUS
370
    0
390
F
  0
ENDTAB
  0
TABLE
  2
STYLE
  5
3
330
0
100
AcDbSymbolTable
 70
    3
  0
STYLE
  5
52
330
2
100
AcDbSymbolTableRecord
100
AcDbTextStyleTableRecord
  2
standard
 70
    0
 40
0
 41
1
 50
0
 71
    0
 42
1
  3
standard
  4

  0
STYLE
  5
53
330
2
100
AcDbSymbolTableRecord
100
AcDbTextStyleTableRecord
  2
STANDARD
 70
    0
 40
0
 41
1
 50
0
 71
    0
 42
1
  3
STANDARD
  4

  0
ENDTAB
  0
TABLE
  2
VIEW
  5
6
330
0
100
AcDbSymbolTable
 70
    0
  0
ENDTAB
  0
TABLE
  2
UCS
  5
7
330
0
100
AcDbSymbolTable
 70
    0
  0
ENDTAB
  0
TABLE
  2
APPID
  5
9
330
0
100
AcDbSymbolTable
 70
    1
  0
APPID
  5
12
330
9
100
AcDbSymbolTableRecord
100
AcDbRegAppTableRecord
  2
ACAD
 70
    0
  0
APPID
  5
54
330
9
100
AcDbSymbolTableRecord
100
AcDbRegAppTableRecord
  2
LibreCad
 70
    0
  0
ENDTAB
  0
TABLE
  2
DIMSTYLE
  5
A
330
0
100
AcDbSymbolTable
 70
    1
100
AcDbDimStyleTable
 71
    1
  0
DIMSTYLE
105
55
330
A
100
AcDbSymbolTableRecord
100
AcDbDimStyleTableRecord
  2
Standard
 70
    0
 40
2.5
 41
2.5
 42
0.625
 43
0.38
 44
1.25
 45
0
 46
0
 47
0
 48
0
 49
1
140
2.5
141
0.09
142
0
143
25.4
144
1
145
0
146
1
147
0.625
148
0
 71
    0
 72
    0
 73
    0
 74
    1
 75
    0
 76
    0
 77
    0
 78
    8
 79
    0
170
    0
171
    2
172
    0
173
    0
174
    0
175
    0
176
    0
177
    0
178
    0
179
    0
271
    2
272
    4
273
    2
274
    2
275
    0
276
    0
277
    2
278
   44
279
    0
280
    0
281
    0
282
    0
283
    1
284
    0
285
    0
286
    0
288
    0
289
    3
340
STANDARD
341

371
   -2
372
   -2
  0
ENDTAB
  0
TABLE
  2
BLOCK_RECORD
  5
1
330
0
100
AcDbSymbolTable
 70
    2
  0
BLOCK_RECORD
  5
1F
330
1
100
AcDbSymbolTableRecord
100
AcDbBlockTableRecord
  2
*Model_Space
 70
    0
280
    1
281
    0
  0
BLOCK_RECORD
  5
1E
330
1
100
AcDbSymbolTableRecord
100
AcDbBlockTableRecord
  2
*Paper_Space
 70
    0
280
    1
281
    0
  0
ENDTAB
  0
ENDSEC
  0
SECTION
  2
BLOCKS
  0
BLOCK
  5
20
330
1F
100
AcDbEntity
  8
0
100
AcDbBlockBegin
  2
*Model_Space
 70
    0
 10
0
 20
0
 30
0
  3
*Model_Space
  1

  0
ENDBLK
  5
21
330
1F
100
AcDbEntity
  8
0
100
AcDbBlockEnd
  0
BLOCK
  5
1C
330
1B
100
AcDbEntity
  8
0
100
AcDbBlockBegin
  2
*Paper_Space
 70
    0
 10
0
 20
0
 30
0
  3
*Paper_Space
  1

  0
ENDBLK
  5
1D
330
1F
100
AcDbEntity
  8
0
100
AcDbBlockEnd
  0
ENDSEC
  0
SECTION
  2
ENTITIES
  0
LWPOLYLINE
  5
56
100
AcDbEntity
  8
0
  6
ByLayer
 62
  256
370
   -1
100
AcDbPolyline
 90
    4
 70
    1
 43
0
 10
-6
 20
0
 10
-3.3
 20
0
 10
-3.3
 20
1.4
 10
-6
 20
1.4
  0
MTEXT
  5
57
100
AcDbEntity
  8
0
  6
ByLayer
 62
  256
370
   -1
100
AcDbMText
 10
-5.800000000000001
 20
1.2
 30
0
 40
1
 41
2.222222222222284
 71
    1
 72
    1
  1
5V0
  7
standard
210
0
220
0
230
1
 50
0
 73
    2
 44
1
  0
LWPOLYLINE
  5
58
100
AcDbEntity
  8
0
  6
ByLayer
 62
  256
370
   -1
100
AcDbPolyline
 90
    4
 70
    1
 43
0
 10
-6
 20
1.5
 10
-3.3
 20
1.5
 10
-3.3
 20
2.9
 10
-6
 20
2.9
  0
LWPOLYLINE
  5
59
100
AcDbEntity
  8
0
  6
ByLayer
 62
  256
370
   -1
100
AcDbPolyline
 90
    4
 70
    1
 43
0
 10
-6
 20
3
 10
-3.3
 20
3
 10
-3.3
 20
4.4
 10
-6
 20
4.4
  0
LWPOLYLINE
  5
5A
100
AcDbEntity
  8
0
  6
ByLayer
 62
  256
370
   -1
100
AcDbPolyline
 90
    4
 70
    1
 43
0
 10
-6
 20
4.500000000000001
 10
-3.3
 20
4.500000000000001
 10
-3.3
 20
5.900000000000001
 10
-6
 20
5.900000000000001
  0
LWPOLYLINE
  5
5B
100
AcDbEntity
  8
0
  6
ByLayer
 62
  256
370
   -1
100
AcDbPolyline
 90
    4
 70
    1
 43
0
 10
-6
 20
6.000000000000001
 10
-3.3
 20
6.000000000000001
 10
-3.3
 20
7.400000000000001
 10
-6
 20
7.400000000000001
  0
LWPOLYLINE
  5
5C
100
AcDbEntity
  8
0
  6
ByLayer
 62
  256
370
   -1
100
AcDbPolyline
 90
    4
 70
    1
 43
0
 10
-6
 20
7.500000000000001
 10
-3.3
 20
7.500000000000001
 10
-3.3
 20
8.9
 10
-6
 20
8.9
  0
LWPOLYLINE
  5
5D
100
AcDbEntity
  8
0
  6
ByLayer
 62
  256
370
   -1
100
AcDbPolyline
 90
    4
 70
    1
 43
0
 10
-6
 20
9.000000000000002
 10
-3.3
 20
9.000000000000002
 10
-3.3
 20
10.4
 10
-6
 20
10.4
  0
LWPOLYLINE
  5
5E
100
AcDbEntity
  8
0
  6
ByLayer
 62
  256
370
   -1
100
AcDbPolyline
 90
    4
 70
    1
 43
0
 10
-6
 20
10.5
 10
-3.3
 20
10.5
 10
-3.3
 20
11.9
 10
-6
 20
11.9
  0
LWPOLYLINE
  5
5F
100
AcDbEntity
  8
0
  6
ByLayer
 62
  256
370
   -1
100
AcDbPolyline
 90
    4
 70
    1
 43
0
 10
-6
 20
12
 10
-3.3
 20
12
 10
-3.3
 20
13.4
 10
-6
 20
13.4
  0
LWPOLYLINE
  5
60
100
AcDbEntity
  8
0
  6
ByLayer
 62
  256
370
   -1
100
AcDbPolyline
 90
    4
 70
    1
 43
0
 10
-6
 20
13.5
 10
-3.3
 20
13.5
 10
-3.3
 20
14.9
 10
-6
 20
14.9
  0
LWPOLYLINE
  5
61
100
AcDbEntity
  8
0
  6
ByLayer
 62
  256
370
   -1
100
AcDbPolyline
 90
    4
 70
    1
 43
0
 10
-6
 20
15
 10
-3.3
 20
15
 10
-3.3
 20
16.4
 10
-6
 20
16.4
  0
LWPOLYLINE
  5
62
100
AcDbEntity
  8
0
  6
ByLayer
 62
  256
370
   -1
100
AcDbPolyline
 90
    4
 70
    1
 43
0
 10
-6
 20
16.5
 10
-3.3
 20
16.5
 10
-3.3
 20
17.9
 10
-6
 20
17.9
  0
LWPOLYLINE
  5
63
100
AcDbEntity
  8
0
  6
ByLayer
 62
  256
370
   -1
100
AcDbPolyline
 90
    4
 70
    1
 43
0
 10
-6
 20
18
 10
-3.3
 20
18
 10
-3.3
 20
19.4
 10
-6
 20
19.4
  0
LWPOLYLINE
  5
64
100
AcDbEntity
  8
0
  6
ByLayer
 62
  256
370
   -1
100
AcDbPolyline
 90
    4
 70
    1
 43
0
 10
-6
 20
19.5
 10
-3.3
 20
19.5
 10
-3.3
 20
20.9
 10
-6
 20
20.9
  0
LWPOLYLINE
  5
65
100
AcDbEntity
  8
0
  6
ByLayer
 62
  256
370
   -1
100
AcDbPolyline
 90
    4
 70
    1
 43
0
 10
-6
 20
21
 10
-3.3
 20
21
 10
-3.3
 20
22.4
 10
-6
 20
22.4
  0
MTEXT
  5
66
100
AcDbEntity
  8
0
  6
ByLayer
 62
  256
370
   -1
100
AcDbMText
 10
-5.8
 20
2.7
 30
0
 40
1
 41
2.333333333333457
 71
    1
 72
    1
  1
GND
  7
standard
210
0
220
0
230
1
 50
0
 73
    2
 44
1
  0
MTEXT
  5
67
100
AcDbEntity
  8
0
  6
ByLayer
 62
  256
370
   -1
100
AcDbMText
 10
-5.8
 20
4.2
 30
0
 40
1
 41
1.888888888889013
 71
    1
 72
    1
  1
G13
  7
standard
210
0
220
0
230
1
 50
0
 73
    2
 44
1
  0
MTEXT
  5
68
100
AcDbEntity
  8
0
  6
ByLayer
 62
  256
370
   -1
100
AcDbMText
 10
-5.8
 20
5.7
 30
0
 40
1
 41
1.888888888888951
 71
    1
 72
    1
  1
G12
  7
standard
210
0
220
0
230
1
 50
0
 73
    2
 44
1
  0
MTEXT
  5
69
100
AcDbEntity
  8
0
  6
ByLayer
 62
  256
370
   -1
100
AcDbMText
 10
-5.8
 20
7.2
 30
0
 40
1
 41
2.000000000000062
 71
    1
 72
    1
  1
G14
  7
standard
210
0
220
0
230
1
 50
0
 73
    2
 44
1
  0
MTEXT
  5
6A
100
AcDbEntity
  8
0
  6
ByLayer
 62
  256
370
   -1
100
AcDbMText
 10
-5.799999999999999
 20
8.700000000000001
 30
0
 40
1
 41
2.111111111111173
 71
    1
 72
    1
  1
G27\P
  7
standard
210
0
220
0
230
1
 50
0
 73
    2
 44
1
  0
MTEXT
  5
6B
100
AcDbEntity
  8
0
  6
ByLayer
 62
  256
370
   -1
100
AcDbMText
 10
-5.799999999999999
 20
10.2
 30
0
 40
1
 41
2.111111111111235
 71
    1
 72
    1
  1
G26\P
  7
standard
210
0
220
0
230
1
 50
0
 73
    2
 44
1
  0
MTEXT
  5
6C
100
AcDbEntity
  8
0
  6
ByLayer
 62
  256
370
   -1
100
AcDbMText
 10
-5.800000000000001
 20
11.7
 30
0
 40
1
 41
2.111111111111235
 71
    1
 72
    1
  1
G25\P
  7
standard
210
0
220
0
230
1
 50
0
 73
    2
 44
1
  0
MTEXT
  5
6D
100
AcDbEntity
  8
0
  6
ByLayer
 62
  256
370
   -1
100
AcDbMText
 10
-5.800000000000001
 20
13.2
 30
0
 40
1
 41
2.111111111111297
 71
    1
 72
    1
  1
G33\P
  7
standard
210
0
220
0
230
1
 50
0
 73
    2
 44
1
  0
MTEXT
  5
6E
100
AcDbEntity
  8
0
  6
ByLayer
 62
  256
370
   -1
100
AcDbMText
 10
-5.8
 20
14.7
 30
0
 40
1
 41
2.111111111111235
 71
    1
 72
    1
  1
G32\P
  7
standard
210
0
220
0
230
1
 50
0
 73
    2
 44
1
  0
MTEXT
  5
6F
100
AcDbEntity
  8
0
  6
ByLayer
 62
  256
370
   -1
100
AcDbMText
 10
-5.800000000000001
 20
16.2
 30
0
 40
1
 41
2.111111111111297
 71
    1
 72
    1
  1
G35\P
  7
standard
210
0
220
0
230
1
 50
0
 73
    2
 44
1
  0
MTEXT
  5
70
100
AcDbEntity
  8
0
  6
ByLayer
 62
  256
370
   -1
100
AcDbMText
 10
-5.800000000000001
 20
17.7
 30
0
 40
1
 41
2.222222222222347
 71
    1
 72
    1
  1
G34\P
  7
standard
210
0
220
0
230
1
 50
0
 73
    2
 44
1
  0
MTEXT
  5
71
100
AcDbEntity
  8
0
  6
ByLayer
 62
  256
370
   -1
100
AcDbMText
 10
-5.800000000000001
 20
19.2
 30
0
 40
1
 41
2.111111111111236
 71
    1
 72
    1
  1
G39\P
  7
standard
210
0
220
0
230
1
 50
0
 73
    2
 44
1
  0
MTEXT
  5
72
100
AcDbEntity
  8
0
  6
ByLayer
 62
  256
370
   -1
100
AcDbMText
 10
-5.8
 20
20.7
 30
0
 40
1
 41
2.111111111111297
 71
    1
 72
    1
  1
G36\P
  7
standard
210
0
220
0
230
1
 50
0
 73
    2
 44
1
  0
MTEXT
  5
73
100
AcDbEntity
  8
0
  6
ByLayer
 62
  256
370
   -1
100
AcDbMText
 10
-5.8
 20
22.2
 30
0
 40
1
 41
1.333333333333333
 71
    1
 72
    1
  1
EN\P
  7
standard
210
0
220
0
230
1
 50
0
 73
    2
 44
1
  0
LWPOLYLINE
  5
74
100
AcDbEntity
  8
RC_reciever
  6
ByLayer
 62
  256
370
   -1
100
AcDbPolyline
 90
    4
 70
    1
 43
0
 10
-23.2
 20
2.775557561562891e-17
 10
-20.3
 20
2.775557561562891e-17
 10
-20.3
 20
1.4
 10
-23.2
 20
1.4
  0
LWPOLYLINE
  5
75
100
AcDbEntity
  8
RC_reciever
  6
ByLayer
 62
  256
370
   -1
100
AcDbPolyline
 90
    4
 70
    1
 43
0
 10
-23.2
 20
1.5
 10
-20.3
 20
1.5
 10
-20.3
 20
2.9
 10
-23.2
 20
2.9
  0
LWPOLYLINE
  5
76
100
AcDbEntity
  8
RC_reciever
  6
ByLayer
 62
  256
370
   -1
100
AcDbPolyline
 90
    4
 70
    1
 43
0
 10
-23.2
 20
3
 10
-20.3
 20
3
 10
-20.3
 20
4.4
 10
-23.2
 20
4.4
  0
MTEXT
  5
77
100
AcDbEntity
  8
RC_reciever
  6
ByLayer
 62
  256
370
   -1
100
AcDbMText
 10
-23
 20
2.7
 30
0
 40
1
 41
2.333333333333457
 71
    1
 72
    1
  1
GND
  7
standard
210
0
220
0
230
1
 50
0
 73
    2
 44
1
  0
MTEXT
  5
78
100
AcDbEntity
  8
RC_reciever
  6
ByLayer
 62
  256
370
   -1
100
AcDbMText
 10
-23
 20
1.2
 30
0
 40
1
 41
2.222222222222284
 71
    1
 72
    1
  1
5V0
  7
standard
210
0
220
0
230
1
 50
0
 73
    2
 44
1
  0
MTEXT
  5
79
100
AcDbEntity
  8
RC_reciever
  6
ByLayer
 62
  256
370
   -1
100
AcDbMText
 10
-23
 20
4.2
 30
0
 40
1
 41
2.444444444444444
 71
    1
 72
    1
  1
PPM\P
  7
standard
210
0
220
0
230
1
 50
0
 73
    2
 44
1
  0
LINE
  5
7A
100
AcDbEntity
  8
RC_reciever
  6
ByLayer
 62
  256
370
   -1
100
AcDbLine
 10
-20.3
 20
2.5
 11
-15
 21
2.5
  0
LINE
  5
7B
100
AcDbEntity
  8
RC_reciever
  6
ByLayer
 62
  256
370
   -1
100
AcDbLine
 10
-15
 20
2.5
 11
-14
 21
1.9
  0
LINE
  5
7C
100
AcDbEntity
  8
RC_reciever
  6
ByLayer
 62
  256
370
   -1
100
AcDbLine
 10
-14
 20
1.9
 11
-6.000000000000001
 21
1.9
  0
LINE
  5
7D
100
AcDbEntity
  8
RC_reciever
  6
ByLayer
 62
  256
370
   -1
100
AcDbLine
 10
-6.000000000000001
 20
0.4
 11
-14
 21
0.4
  0
LINE
  5
7E
100
AcDbEntity
  8
RC_reciever
  6
ByLayer
 62
  256
370
   -1
100
AcDbLine
 10
-14
 20
0.4
 11
-15
 21
1
  0
LINE
  5
7F
100
AcDbEntity
  8
RC_reciever
  6
ByLayer
 62
  256
370
   -1
100
AcDbLine
 10
-15
 20
1
 11
-20.3
 21
1
  0
LINE
  5
80
100
AcDbEntity
  8
RC_reciever
  6
ByLayer
 62
  256
370
   -1
100
AcDbLine
 10
-16
 20
-2
 11
-16
 21
3.4
  0
LINE
  5
81
100
AcDbEntity
  8
RC_reciever
  6
ByLayer
 62
  256
370
   -1
100
AcDbLine
 10
-16
 20
3.4
 11
-17
 21
4
  0
LINE
  5
82
100
AcDbEntity
  8
RC_reciever
  6
ByLayer
 62
  256
370
   -1
100
AcDbLine
 10
-17
 20
4
 11
-20.3
 21
4
  0
MTEXT
  5
83
100
AcDbEntity
  8
RC_reciever
  6
ByLayer
 62
  256
370
   -1
100
AcDbMText
 10
-26.7
 20
3.2
 30
0
 40
2
 41
2.666666666666667
 71
    1
 72
    1
  1
RC
  7
standard
210
0
220
0
230
1
 50
0
 73
    2
 44
1
  0
LWPOLYLINE
  5
84
100
AcDbEntity
  8
RC_reciever
  6
ByLayer
 62
  256
370
   -1
100
AcDbPolyline
 90
    4
 70
    1
 43
0
 10
-20.1
 20
-0.2000000000000002
 10
-28
 20
-0.2000000000000002
 10
-28
 20
4.699999999999999
 10
-20.1
 20
4.699999999999999
  0
LWPOLYLINE
  5
85
100
AcDbEntity
  8
Servo
  6
ByLayer
 62
  256
370
   -1
100
AcDbPolyline
 90
    4
 70
    1
 43
0
 10
-23.2
 20
6
 10
-20.3
 20
6
 10
-20.3
 20
7.4
 10
-23.2
 20
7.4
  0
LWPOLYLINE
  5
86
100
AcDbEntity
  8
Servo
  6
ByLayer
 62
  256
370
   -1
100
AcDbPolyline
 90
    4
 70
    1
 43
0
 10
-23.2
 20
7.500000000000001
 10
-20.3
 20
7.500000000000001
 10
-20.3
 20
8.900000000000002
 10
-23.2
 20
8.900000000000002
  0
LWPOLYLINE
  5
87
100
AcDbEntity
  8
Servo
  6
ByLayer
 62
  256
370
   -1
100
AcDbPolyline
 90
    4
 70
    1
 43
0
 10
-23.2
 20
9.000000000000002
 10
-20.3
 20
9.000000000000002
 10
-20.3
 20
10.4
 10
-23.2
 20
10.4
  0
LWPOLYLINE
  5
88
100
AcDbEntity
  8
Servo
  6
ByLayer
 62
  256
370
   -1
100
AcDbPolyline
 90
    4
 70
    1
 43
0
 10
-23.2
 20
10.5
 10
-20.3
 20
10.5
 10
-20.3
 20
11.9
 10
-23.2
 20
11.9
  0
LWPOLYLINE
  5
89
100
AcDbEntity
  8
Servo
  6
ByLayer
 62
  256
370
   -1
100
AcDbPolyline
 90
    4
 70
    1
 43
0
 10
-23.2
 20
12
 10
-20.3
 20
12
 10
-20.3
 20
13.4
 10
-23.2
 20
13.4
  0
LWPOLYLINE
  5
8A
100
AcDbEntity
  8
Servo
  6
ByLayer
 62
  256
370
   -1
100
AcDbPolyline
 90
    4
 70
    1
 43
0
 10
-23.2
 20
13.5
 10
-20.3
 20
13.5
 10
-20.3
 20
14.90000000000001
 10
-23.2
 20
14.90000000000001
  0
MTEXT
  5
8B
100
AcDbEntity
  8
Servo
  6
ByLayer
 62
  256
370
   -1
100
AcDbMText
 10
-23
 20
14.7
 30
0
 40
1
 41
1.99999978799785
 71
    1
 72
    1
  1
SR1
  7
standard
210
0
220
0
230
1
 50
0
 73
    2
 44
1
  0
MTEXT
  5
8C
100
AcDbEntity
  8
Servo
  6
ByLayer
 62
  256
370
   -1
100
AcDbMText
 10
-23
 20
13.2
 30
0
 40
1
 41
2.222222010220073
 71
    1
 72
    1
  1
SR2
  7
standard
210
0
220
0
230
1
 50
0
 73
    2
 44
1
  0
MTEXT
  5
8D
100
AcDbEntity
  8
Servo
  6
ByLayer
 62
  256
370
   -1
100
AcDbMText
 10
-23
 20
11.7
 30
0
 40
1
 41
2.222222010220134
 71
    1
 72
    1
  1
SR3
  7
standard
210
0
220
0
230
1
 50
0
 73
    2
 44
1
  0
MTEXT
  5
8E
100
AcDbEntity
  8
Servo
  6
ByLayer
 62
  256
370
   -1
100
AcDbMText
 10
-23
 20
10.2
 30
0
 40
1
 41
2.333333121331184
 71
    1
 72
    1
  1
SR4
  7
standard
210
0
220
0
230
1
 50
0
 73
    2
 44
1
  0
MTEXT
  5
8F
100
AcDbEntity
  8
Servo
  6
ByLayer
 62
  256
370
   -1
100
AcDbMText
 10
-23
 20
8.700000000000001
 30
0
 40
1
 41
2.222222010220134
 71
    1
 72
    1
  1
SR5
  7
standard
210
0
220
0
230
1
 50
0
 73
    2
 44
1
  0
MTEXT
  5
90
100
AcDbEntity
  8
Servo
  6
ByLayer
 62
  256
370
   -1
100
AcDbMText
 10
-23
 20
7.2
 30
0
 40
1
 41
2.222222010220134
 71
    1
 72
    1
  1
SR6
  7
standard
210
0
220
0
230
1
 50
0
 73
    2
 44
1
  0
LINE
  5
91
100
AcDbEntity
  8
Servo
  6
ByLayer
 62
  256
370
   -1
100
AcDbLine
 10
-20.3
 20
14.5
 11
-15
 21
14.5
  0
LINE
  5
92
100
AcDbEntity
  8
Servo
  6
ByLayer
 62
  256
370
   -1
100
AcDbLine
 10
-15
 20
14.5
 11
-14
 21
10.9
  0
LINE
  5
93
100
AcDbEntity
  8
Servo
  6
ByLayer
 62
  256
370
   -1
100
AcDbLine
 10
-6.000000000000002
 20
10.9
 11
-14
 21
10.9
  0
LINE
  5
94
100
AcDbEntity
  8
Servo
  6
ByLayer
 62
  256
370
   -1
100
AcDbLine
 10
-20.3
 20
13
 11
-15
 21
13
  0
LINE
  5
95
100
AcDbEntity
  8
Servo
  6
ByLayer
 62
  256
370
   -1
100
AcDbLine
 10
-15
 20
13
 11
-14
 21
7.9
  0
LINE
  5
96
100
AcDbEntity
  8
Servo
  6
ByLayer
 62
  256
370
   -1
100
AcDbLine
 10
-14
 20
7.9
 11
-6.000000000000002
 21
7.9
  0
LINE
  5
97
100
AcDbEntity
  8
Servo
  6
ByLayer
 62
  256
370
   -1
100
AcDbLine
 10
-20.3
 20
11.5
 11
-14
 21
11.5
  0
LINE
  5
98
100
AcDbEntity
  8
Servo
  6
ByLayer
 62
  256
370
   -1
100
AcDbLine
 10
-14
 20
11.5
 11
-13
 21
12.4
  0
LINE
  5
99
100
AcDbEntity
  8
Servo
  6
ByLayer
 62
  256
370
   -1
100
AcDbLine
 10
-13
 20
12.4
 11
-6.000000000000004
 21
12.4
  0
LINE
  5
9A
100
AcDbEntity
  8
Servo
  6
ByLayer
 62
  256
370
   -1
100
AcDbLine
 10
-20.3
 20
10
 11
-13
 21
10
  0
LINE
  5
9B
100
AcDbEntity
  8
Servo
  6
ByLayer
 62
  256
370
   -1
100
AcDbLine
 10
-13
 20
10
 11
-12
 21
13.9
  0
LINE
  5
9C
100
AcDbEntity
  8
Servo
  6
ByLayer
 62
  256
370
   -1
100
AcDbLine
 10
-12
 20
13.9
 11
-6.000000000000002
 21
13.9
  0
MTEXT
  5
9D
100
AcDbEntity
  8
Servo
  6
ByLayer
 62
  256
370
   -1
100
AcDbMText
 10
-26
 20
13.2
 30
0
 40
1
 41
2
 71
    1
 72
    1
  1
ELE
  7
standard
210
0
220
0
230
1
 50
0
 73
    2
 44
1
  0
MTEXT
  5
9E
100
AcDbEntity
  8
Servo
  6
ByLayer
 62
  256
370
   -1
100
AcDbMText
 10
-26
 20
11.7
 30
0
 40
1
 41
2.333333333333333
 71
    1
 72
    1
  1
THR
  7
standard
210
0
220
0
230
1
 50
0
 73
    2
 44
1
  0
MTEXT
  5
9F
100
AcDbEntity
  8
Servo
  6
ByLayer
 62
  256
370
   -1
100
AcDbMText
 10
-26
 20
10.2
 30
0
 40
1
 41
2.333333333333395
 71
    1
 72
    1
  1
RUD
  7
standard
210
0
220
0
230
1
 50
0
 73
    2
 44
1
  0
MTEXT
  5
A0
100
AcDbEntity
  8
Servo
  6
ByLayer
 62
  256
370
   -1
100
AcDbMText
 10
-26
 20
8.700000000000001
 30
0
 40
1
 41
2.333333333333333
 71
    1
 72
    1
  1
AU0
  7
standard
210
0
220
0
230
1
 50
0
 73
    2
 44
1
  0
MTEXT
  5
A1
100
AcDbEntity
  8
Servo
  6
ByLayer
 62
  256
370
   -1
100
AcDbMText
 10
-26
 20
7.200000000000001
 30
0
 40
1
 41
2.111111111111111
 71
    1
 72
    1
  1
AU1
  7
standard
210
0
220
0
230
1
 50
0
 73
    2
 44
1
  0
MTEXT
  5
A2
100
AcDbEntity
  8
Servo
  6
ByLayer
 62
  256
370
   -1
100
AcDbMText
 10
-28.70000000000001
 20
14.7
 30
0
 40
1
 41
0.6666666666666666
 71
    1
 72
    1
  1
S\PE\PR\PV\PO
  7
standard
210
0
220
0
230
1
 50
0
 73
    2
 44
1
  0
MTEXT
  5
A3
100
AcDbEntity
  8
Servo
  6
ByLayer
 62
  256
370
   -1
100
AcDbMText
 10
-26
 20
14.7
 30
0
 40
1
 41
1.777777777777778
 71
    1
 72
    1
  1
AIL
  7
standard
210
0
220
0
230
1
 50
0
 73
    2
 44
1
  0
LWPOLYLINE
  5
A4
100
AcDbEntity
  8
Servo
  6
ByLayer
 62
  256
370
   -1
100
AcDbPolyline
 90
    4
 70
    1
 43
0
 10
-20.1
 20
5.800000000000001
 10
-29
 20
5.800000000000001
 10
-29
 20
15.1
 10
-20.1
 20
15.1
  0
LINE
  5
A5
100
AcDbEntity
  8
SDMMC_card
  6
ByLayer
 62
  256
370
   -1
100
AcDbLine
 10
-6.000000000000001
 20
6.4
 11
-9
 21
6.4
  0
LINE
  5
A6
100
AcDbEntity
  8
SDMMC_card
  6
ByLayer
 62
  256
370
   -1
100
AcDbLine
 10
-9
 20
6.4
 11
-9
 21
-5
  0
MTEXT
  5
A7
100
AcDbEntity
  8
0
  6
ByLayer
 62
  256
370
   -1
100
AcDbMText
 10
-9.800000000000001
 20
37.2
 30
0
 40
1
 41
2.111111111111173
 71
    1
 72
    1
  1
LED
  7
standard
210
0
220
0
230
1
 50
0
 73
    2
 44
1
  0
MTEXT
  5
A8
100
AcDbEntity
  8
0
  6
ByLayer
 62
  256
370
   -1
100
AcDbMText
 10
-4.8
 20
37.2
 30
0
 40
1
 41
2.111111111111173
 71
    1
 72
    1
  1
G02
  7
standard
210
0
220
0
230
1
 50
0
 73
    2
 44
1
  0
LWPOLYLINE
  5
A9
100
AcDbEntity
  8
0
  6
ByLayer
 62
  256
370
   -1
100
AcDbPolyline
 90
    4
 70
    1
 43
0
 10
-10
 20
36
 10
-7.5
 20
36
 10
-7.5
 20
37.4
 10
-10
 20
37.4
  0
LWPOLYLINE
  5
AA
100
AcDbEntity
  8
0
  6
ByLayer
 62
  256
370
   -1
100
AcDbPolyline
 90
    4
 70
    1
 43
0
 10
-5
 20
36
 10
-2.5
 20
36
 10
-2.5
 20
37.4
 10
-5
 20
37.4
  0
LINE
  5
AB
100
AcDbEntity
  8
0
  6
ByLayer
 62
  256
370
   -1
100
AcDbLine
 10
-7.5
 20
37
 11
-7
 21
37
  0
LINE
  5
AC
100
AcDbEntity
  8
0
  6
ByLayer
 62
  256
370
   -1
100
AcDbLine
 10
-7
 20
37
 11
-6
 21
36.4
  0
LINE
  5
AD
100
AcDbEntity
  8
0
  6
ByLayer
 62
  256
370
   -1
100
AcDbLine
 10
-6
 20
36.4
 11
-5
 21
36.4
  0
LWPOLYLINE
  5
AE
100
AcDbEntity
  8
GPS
  6
ByLayer
 62
  256
370
   -1
100
AcDbPolyline
 90
    4
 70
    1
 43
0
 10
29.8
 20
-0.1999999999999994
 10
32.5
 20
-0.1999999999999994
 10
32.5
 20
1.200000000000001
 10
29.8
 20
1.200000000000001
  0
LWPOLYLINE
  5
AF
100
AcDbEntity
  8
GPS
  6
ByLayer
 62
  256
370
   -1
100
AcDbPolyline
 90
    4
 70
    1
 43
0
 10
29.8
 20
1.300000000000001
 10
32.5
 20
1.300000000000001
 10
32.5
 20
2.700000000000001
 10
29.8
 20
2.700000000000001
  0
LWPOLYLINE
  5
B0
100
AcDbEntity
  8
GPS
  6
ByLayer
 62
  256
370
   -1
100
AcDbPolyline
 90
    4
 70
    1
 43
0
 10
29.8
 20
2.800000000000001
 10
32.5
 20
2.800000000000001
 10
32.5
 20
4.200000000000001
 10
29.8
 20
4.200000000000001
  0
LWPOLYLINE
  5
B1
100
AcDbEntity
  8
GPS
  6
ByLayer
 62
  256
370
   -1
100
AcDbPolyline
 90
    4
 70
    1
 43
0
 10
29.8
 20
4.300000000000001
 10
32.5
 20
4.300000000000001
 10
32.5
 20
5.700000000000001
 10
29.8
 20
5.700000000000001
  0
LWPOLYLINE
  5
B2
100
AcDbEntity
  8
GPS
  6
ByLayer
 62
  256
370
   -1
100
AcDbPolyline
 90
    4
 70
    1
 43
0
 10
29.8
 20
5.800000000000001
 10
32.5
 20
5.800000000000001
 10
32.5
 20
7.200000000000001
 10
29.8
 20
7.200000000000001
  0
MTEXT
  5
B3
100
AcDbEntity
  8
GPS
  6
ByLayer
 62
  256
370
   -1
100
AcDbMText
 10
30
 20
1.000000000000001
 30
0
 40
1
 41
2.222222222222222
 71
    1
 72
    1
  1
VCC
  7
standard
210
0
220
0
230
1
 50
0
 73
    2
 44
1
  0
MTEXT
  5
B4
100
AcDbEntity
  8
GPS
  6
ByLayer
 62
  256
370
   -1
100
AcDbMText
 10
30
 20
2.500000000000001
 30
0
 40
1
 41
2.333333333333457
 71
    1
 72
    1
  1
GND
  7
standard
210
0
220
0
230
1
 50
0
 73
    2
 44
1
  0
MTEXT
  5
B5
100
AcDbEntity
  8
GPS
  6
ByLayer
 62
  256
370
   -1
100
AcDbMText
 10
30
 20
4.000000000000001
 30
0
 40
1
 41
1.555555555555555
 71
    1
 72
    1
  1
TX
  7
standard
210
0
220
0
230
1
 50
0
 73
    2
 44
1
  0
MTEXT
  5
B6
100
AcDbEntity
  8
GPS
  6
ByLayer
 62
  256
370
   -1
100
AcDbMText
 10
30
 20
5.500000000000002
 30
0
 40
1
 41
1.555555555555555
 71
    1
 72
    1
  1
RX
  7
standard
210
0
220
0
230
1
 50
0
 73
    2
 44
1
  0
MTEXT
  5
B7
100
AcDbEntity
  8
GPS
  6
ByLayer
 62
  256
370
   -1
100
AcDbMText
 10
30
 20
7.000000000000001
 30
0
 40
1
 41
2.333333121331184
 71
    1
 72
    1
  1
PPS
  7
standard
210
0
220
0
230
1
 50
0
 73
    2
 44
1
  0
LINE
  5
B8
100
AcDbEntity
  8
GPS
  6
ByLayer
 62
  256
370
   -1
100
AcDbLine
 10
15.8
 20
0.8000000000000007
 11
22.8
 21
0.8000000000000007
  0
LINE
  5
B9
100
AcDbEntity
  8
GPS
  6
ByLayer
 62
  256
370
   -1
100
AcDbLine
 10
22.8
 20
0.8000000000000007
 11
23.8
 21
0.2000000000000006
  0
LINE
  5
BA
100
AcDbEntity
  8
GPS
  6
ByLayer
 62
  256
370
   -1
100
AcDbLine
 10
23.8
 20
0.2000000000000006
 11
29.8
 21
0.2000000000000006
  0
LINE
  5
BB
100
AcDbEntity
  8
GPS
  6
ByLayer
 62
  256
370
   -1
100
AcDbLine
 10
15.8
 20
2.300000000000001
 11
22.8
 21
2.300000000000001
  0
LINE
  5
BC
100
AcDbEntity
  8
GPS
  6
ByLayer
 62
  256
370
   -1
100
AcDbLine
 10
22.8
 20
2.300000000000001
 11
23.8
 21
1.700000000000001
  0
LINE
  5
BD
100
AcDbEntity
  8
GPS
  6
ByLayer
 62
  256
370
   -1
100
AcDbLine
 10
23.8
 20
1.700000000000001
 11
29.8
 21
1.700000000000001
  0
LINE
  5
BE
100
AcDbEntity
  8
GPS
  6
ByLayer
 62
  256
370
   -1
100
AcDbLine
 10
15.8
 20
8.300000000000001
 11
22.8
 21
8.300000000000001
  0
LINE
  5
BF
100
AcDbEntity
  8
GPS
  6
ByLayer
 62
  256
370
   -1
100
AcDbLine
 10
22.8
 20
8.300000000000001
 11
23.8
 21
3.200000000000001
  0
LINE
  5
C0
100
AcDbEntity
  8
GPS
  6
ByLayer
 62
  256
370
   -1
100
AcDbLine
 10
23.8
 20
3.200000000000001
 11
29.8
 21
3.200000000000001
  0
LINE
  5
C1
100
AcDbEntity
  8
GPS
  6
ByLayer
 62
  256
370
   -1
100
AcDbLine
 10
15.8
 20
9.800000000000001
 11
22.8
 21
9.800000000000001
  0
LINE
  5
C2
100
AcDbEntity
  8
GPS
  6
ByLayer
 62
  256
370
   -1
100
AcDbLine
 10
22.8
 20
9.800000000000001
 11
23.8
 21
4.700000000000001
  0
LINE
  5
C3
100
AcDbEntity
  8
GPS
  6
ByLayer
 62
  256
370
   -1
100
AcDbLine
 10
23.8
 20
4.700000000000001
 11
29.8
 21
4.700000000000001
  0
LWPOLYLINE
  5
C4
100
AcDbEntity
  8
GPS
  6
ByLayer
 62
  256
370
   -1
100
AcDbPolyline
 90
    4
 70
    1
 43
0
 10
29.6
 20
-0.3999999999999995
 10
39.8
 20
-0.3999999999999995
 10
39.8
 20
7.400000000000002
 10
29.6
 20
7.400000000000002
  0
MTEXT
  5
C5
100
AcDbEntity
  8
GPS
  6
ByLayer
 62
  256
370
   -1
100
AcDbMText
 10
34
 20
4.500000000000001
 30
0
 40
2
 41
4.666666242662492
 71
    1
 72
    1
  1
GPS
  7
standard
210
0
220
0
230
1
 50
0
 73
    2
 44
1
  0
LINE
  5
C6
100
AcDbEntity
  8
RC_reciever
  6
ByLayer
 62
  256
370
   -1
100
AcDbLine
 10
15.8
 20
6.800000000000001
 11
17.8
 21
6.800000000000001
  0
LINE
  5
C7
100
AcDbEntity
  8
RC_reciever
  6
ByLayer
 62
  256
370
   -1
100
AcDbLine
 10
17.8
 20
6.800000000000001
 11
17.8
 21
-2.199999999999999
  0
LINE
  5
C8
100
AcDbEntity
  8
RC_reciever
  6
ByLayer
 62
  256
370
   -1
100
AcDbLine
 10
17.8
 20
-2.199999999999999
 11
-6.199999999999999
 21
-2.199999999999999
  0
MTEXT
  5
C9
100
AcDbEntity
  8
SDMMC_card
  6
ByLayer
 62
  256
370
   -1
100
AcDbMText
 10
30
 20
-3.399999999999999
 30
0
 40
1
 41
1.333333333333395
 71
    1
 72
    1
  1
D0
  7
standard
210
0
220
0
230
1
 50
0
 73
    2
 44
1
  0
MTEXT
  5
CA
100
AcDbEntity
  8
SDMMC_card
  6
ByLayer
 62
  256
370
   -1
100
AcDbMText
 10
30
 20
-4.899999999999999
 30
0
 40
1
 41
2.111111111111173
 71
    1
 72
    1
  1
CLK
  7
standard
210
0
220
0
230
1
 50
0
 73
    2
 44
1
  0
MTEXT
  5
CB
100
AcDbEntity
  8
SDMMC_card
  6
ByLayer
 62
  256
370
   -1
100
AcDbMText
 10
30
 20
-6.4
 30
0
 40
1
 41
2.333333333333457
 71
    1
 72
    1
  1
CMD
  7
standard
210
0
220
0
230
1
 50
0
 73
    2
 44
1
  0
MTEXT
  5
CC
100
AcDbEntity
  8
SDMMC_card
  6
ByLayer
 62
  256
370
   -1
100
AcDbMText
 10
30
 20
-7.9
 30
0
 40
1
 41
2.444444020440146
 71
    1
 72
    1
  1
VSS
  7
standard
210
0
220
0
230
1
 50
0
 73
    2
 44
1
  0
MTEXT
  5
CD
100
AcDbEntity
  8
SDMMC_card
  6
ByLayer
 62
  256
370
   -1
100
AcDbMText
 10
30
 20
-9.4
 30
0
 40
1
 41
2.222222222222222
 71
    1
 72
    1
  1
VCC
  7
standard
210
0
220
0
230
1
 50
0
 73
    2
 44
1
  0
LWPOLYLINE
  5
CE
100
AcDbEntity
  8
SDMMC_card
  6
ByLayer
 62
  256
370
   -1
100
AcDbPolyline
 90
    4
 70
    1
 43
0
 10
29.8
 20
-9.199999999999999
 10
32.8
 20
-9.199999999999999
 10
32.8
 20
-10.6
 10
29.8
 20
-10.6
  0
LWPOLYLINE
  5
CF
100
AcDbEntity
  8
SDMMC_card
  6
ByLayer
 62
  256
370
   -1
100
AcDbPolyline
 90
    4
 70
    1
 43
0
 10
29.8
 20
-7.699999999999999
 10
32.8
 20
-7.699999999999999
 10
32.8
 20
-9.1
 10
29.8
 20
-9.1
  0
LWPOLYLINE
  5
D0
100
AcDbEntity
  8
SDMMC_card
  6
ByLayer
 62
  256
370
   -1
100
AcDbPolyline
 90
    4
 70
    1
 43
0
 10
29.8
 20
-6.199999999999999
 10
32.8
 20
-6.199999999999999
 10
32.8
 20
-7.6
 10
29.8
 20
-7.6
  0
LWPOLYLINE
  5
D1
100
AcDbEntity
  8
SDMMC_card
  6
ByLayer
 62
  256
370
   -1
100
AcDbPolyline
 90
    4
 70
    1
 43
0
 10
29.8
 20
-4.699999999999999
 10
32.8
 20
-4.699999999999999
 10
32.8
 20
-6.1
 10
29.8
 20
-6.1
  0
LWPOLYLINE
  5
D2
100
AcDbEntity
  8
SDMMC_card
  6
ByLayer
 62
  256
370
   -1
100
AcDbPolyline
 90
    4
 70
    1
 43
0
 10
29.8
 20
-3.199999999999999
 10
32.8
 20
-3.199999999999999
 10
32.8
 20
-4.6
 10
29.8
 20
-4.6
  0
LWPOLYLINE
  5
D3
100
AcDbEntity
  8
SDMMC_card
  6
ByLayer
 62
  256
370
   -1
100
AcDbPolyline
 90
    4
 70
    1
 43
0
 10
29.6
 20
-2.999999999999998
 10
40.1
 20
-2.999999999999998
 10
40.1
 20
-10.8
 10
29.6
 20
-10.8
  0
LINE
  5
D4
100
AcDbEntity
  8
SDMMC_card
  6
ByLayer
 62
  256
370
   -1
100
AcDbLine
 10
29.8
 20
-8.700000000000001
 11
24.3
 21
-8.700000000000001
  0
LINE
  5
D5
100
AcDbEntity
  8
SDMMC_card
  6
ByLayer
 62
  256
370
   -1
100
AcDbLine
 10
24.3
 20
-8.700000000000001
 11
23.3
 21
-8.199999999999999
  0
LINE
  5
D6
100
AcDbEntity
  8
SDMMC_card
  6
ByLayer
 62
  256
370
   -1
100
AcDbLine
 10
23.3
 20
1.500000000000001
 11
22.3
 21
2.100000000000001
  0
LINE
  5
D7
100
AcDbEntity
  8
SDMMC_card
  6
ByLayer
 62
  256
370
   -1
100
AcDbLine
 10
22.3
 20
2.100000000000001
 11
15.8
 21
2.100000000000001
  0
LINE
  5
D8
100
AcDbEntity
  8
SDMMC_card
  6
ByLayer
 62
  256
370
   -1
100
AcDbLine
 10
21.3
 20
0.6000000000000005
 11
22.3
 21
4.996003610813204e-16
  0
LINE
  5
D9
100
AcDbEntity
  8
SDMMC_card
  6
ByLayer
 62
  256
370
   -1
100
AcDbLine
 10
22.3
 20
4.996003610813204e-16
 11
22.3
 21
-9.700000000000001
  0
LINE
  5
DA
100
AcDbEntity
  8
SDMMC_card
  6
ByLayer
 62
  256
370
   -1
100
AcDbLine
 10
22.3
 20
-9.700000000000001
 11
23.3
 21
-10.2
  0
LINE
  5
DB
100
AcDbEntity
  8
SDMMC_card
  6
ByLayer
 62
  256
370
   -1
100
AcDbLine
 10
23.3
 20
1.500000000000001
 11
23.3
 21
-8.199999999999999
  0
LINE
  5
DC
100
AcDbEntity
  8
SDMMC_card
  6
ByLayer
 62
  256
370
   -1
100
AcDbLine
 10
23.3
 20
-10.2
 11
29.8
 21
-10.2
  0
LINE
  5
DD
100
AcDbEntity
  8
SDMMC_card
  6
ByLayer
 62
  256
370
   -1
100
AcDbLine
 10
29.8
 20
-7.199999999999999
 11
25.3
 21
-7.199999999999999
  0
LINE
  5
DE
100
AcDbEntity
  8
SDMMC_card
  6
ByLayer
 62
  256
370
   -1
100
AcDbLine
 10
25.3
 20
-7.199999999999999
 11
24.3
 21
-6.699999999999999
  0
LINE
  5
DF
100
AcDbEntity
  8
SDMMC_card
  6
ByLayer
 62
  256
370
   -1
100
AcDbLine
 10
15.8
 20
3.800000000000001
 11
23.3
 21
3.800000000000001
  0
LINE
  5
E0
100
AcDbEntity
  8
SDMMC_card
  6
ByLayer
 62
  256
370
   -1
100
AcDbLine
 10
23.3
 20
3.800000000000001
 11
24.3
 21
3.300000000000001
  0
LINE
  5
E1
100
AcDbEntity
  8
SDMMC_card
  6
ByLayer
 62
  256
370
   -1
100
AcDbLine
 10
24.3
 20
3.300000000000001
 11
24.3
 21
-6.699999999999999
  0
LINE
  5
E2
100
AcDbEntity
  8
SDMMC_card
  6
ByLayer
 62
  256
370
   -1
100
AcDbLine
 10
0.8000000000000007
 20
-5.199999999999999
 11
20.3
 21
-5.199999999999999
  0
LINE
  5
E3
100
AcDbEntity
  8
SDMMC_card
  6
ByLayer
 62
  256
370
   -1
100
AcDbLine
 10
20.3
 20
-5.199999999999999
 11
21.3
 21
-5.699999999999998
  0
LINE
  5
E4
100
AcDbEntity
  8
SDMMC_card
  6
ByLayer
 62
  256
370
   -1
100
AcDbLine
 10
21.3
 20
-5.699999999999998
 11
29.8
 21
-5.699999999999998
  0
LINE
  5
E5
100
AcDbEntity
  8
SDMMC_card
  6
ByLayer
 62
  256
370
   -1
100
AcDbLine
 10
29.8
 20
-4.199999999999999
 11
26.3
 21
-4.199999999999999
  0
LINE
  5
E6
100
AcDbEntity
  8
SDMMC_card
  6
ByLayer
 62
  256
370
   -1
100
AcDbLine
 10
26.3
 20
-4.199999999999999
 11
25.3
 21
-3.699999999999999
  0
LINE
  5
E7
100
AcDbEntity
  8
SDMMC_card
  6
ByLayer
 62
  256
370
   -1
100
AcDbLine
 10
15.8
 20
5.300000000000001
 11
24.3
 21
5.300000000000001
  0
LINE
  5
E8
100
AcDbEntity
  8
SDMMC_card
  6
ByLayer
 62
  256
370
   -1
100
AcDbLine
 10
24.3
 20
5.300000000000001
 11
25.3
 21
4.800000000000001
  0
LINE
  5
E9
100
AcDbEntity
  8
SDMMC_card
  6
ByLayer
 62
  256
370
   -1
100
AcDbLine
 10
25.3
 20
4.800000000000001
 11
25.3
 21
-3.699999999999999
  0
MTEXT
  5
EA
100
AcDbEntity
  8
BM280
  6
ByLayer
 62
  256
370
   -1
100
AcDbMText
 10
30
 20
11
 30
0
 40
1
 41
2.333333121331246
 71
    1
 72
    1
  1
SDO
  7
standard
210
0
220
0
230
1
 50
0
 73
    2
 44
1
  0
LWPOLYLINE
  5
EB
100
AcDbEntity
  8
BM280
  6
ByLayer
 62
  256
370
   -1
100
AcDbPolyline
 90
    4
 70
    1
 43
0
 10
29.8
 20
9.800000000000001
 10
32.5
 20
9.800000000000001
 10
32.5
 20
11.2
 10
29.8
 20
11.2
  0
MTEXT
  5
EC
100
AcDbEntity
  8
BM280
  6
ByLayer
 62
  256
370
   -1
100
AcDbMText
 10
30
 20
12.5
 30
0
 40
1
 41
2.222222010220135
 71
    1
 72
    1
  1
CSB
  7
standard
210
0
220
0
230
1
 50
0
 73
    2
 44
1
  0
MTEXT
  5
ED
100
AcDbEntity
  8
BM280
  6
ByLayer
 62
  256
370
   -1
100
AcDbMText
 10
30
 20
14
 30
0
 40
1
 41
2.444444232442357
 71
    1
 72
    1
  1
SDA
  7
standard
210
0
220
0
230
1
 50
0
 73
    2
 44
1
  0
MTEXT
  5
EE
100
AcDbEntity
  8
BM280
  6
ByLayer
 62
  256
370
   -1
100
AcDbMText
 10
30
 20
15.5
 30
0
 40
1
 41
2.111110899108962
 71
    1
 72
    1
  1
SCL
  7
standard
210
0
220
0
230
1
 50
0
 73
    2
 44
1
  0
MTEXT
  5
EF
100
AcDbEntity
  8
BM280
  6
ByLayer
 62
  256
370
   -1
100
AcDbMText
 10
30
 20
17
 30
0
 40
1
 41
2.333333333333457
 71
    1
 72
    1
  1
GND
  7
standard
210
0
220
0
230
1
 50
0
 73
    2
 44
1
  0
MTEXT
  5
F0
100
AcDbEntity
  8
BM280
  6
ByLayer
 62
  256
370
   -1
100
AcDbMText
 10
30
 20
18.5
 30
0
 40
1
 41
2.222222222222222
 71
    1
 72
    1
  1
VCC
  7
standard
210
0
220
0
230
1
 50
0
 73
    2
 44
1
  0
LWPOLYLINE
  5
F1
100
AcDbEntity
  8
BM280
  6
ByLayer
 62
  256
370
   -1
100
AcDbPolyline
 90
    4
 70
    1
 43
0
 10
29.8
 20
11.3
 10
32.5
 20
11.3
 10
32.5
 20
12.7
 10
29.8
 20
12.7
  0
LWPOLYLINE
  5
F2
100
AcDbEntity
  8
BM280
  6
ByLayer
 62
  256
370
   -1
100
AcDbPolyline
 90
    4
 70
    1
 43
0
 10
29.8
 20
12.8
 10
32.5
 20
12.8
 10
32.5
 20
14.2
 10
29.8
 20
14.2
  0
LWPOLYLINE
  5
F3
100
AcDbEntity
  8
BM280
  6
ByLayer
 62
  256
370
   -1
100
AcDbPolyline
 90
    4
 70
    1
 43
0
 10
29.8
 20
14.3
 10
32.5
 20
14.3
 10
32.5
 20
15.7
 10
29.8
 20
15.7
  0
LWPOLYLINE
  5
F4
100
AcDbEntity
  8
BM280
  6
ByLayer
 62
  256
370
   -1
100
AcDbPolyline
 90
    4
 70
    1
 43
0
 10
29.8
 20
15.8
 10
32.5
 20
15.8
 10
32.5
 20
17.2
 10
29.8
 20
17.2
  0
LWPOLYLINE
  5
F5
100
AcDbEntity
  8
BM280
  6
ByLayer
 62
  256
370
   -1
100
AcDbPolyline
 90
    4
 70
    1
 43
0
 10
29.8
 20
17.3
 10
32.5
 20
17.3
 10
32.5
 20
18.7
 10
29.8
 20
18.7
  0
LINE
  5
F6
100
AcDbEntity
  8
BM280
  6
ByLayer
 62
  256
370
   -1
100
AcDbLine
 10
15.8
 20
21.8
 11
25.8
 21
21.8
  0
LINE
  5
F7
100
AcDbEntity
  8
BM280
  6
ByLayer
 62
  256
370
   -1
100
AcDbLine
 10
25.8
 20
21.8
 11
26.8
 21
21.3
  0
LINE
  5
F8
100
AcDbEntity
  8
BM280
  6
ByLayer
 62
  256
370
   -1
100
AcDbLine
 10
26.8
 20
21.3
 11
26.8
 21
13.7
  0
LINE
  5
F9
100
AcDbEntity
  8
BM280
  6
ByLayer
 62
  256
370
   -1
100
AcDbLine
 10
26.8
 20
13.7
 11
27.8
 21
13.2
  0
LINE
  5
FA
100
AcDbEntity
  8
BM280
  6
ByLayer
 62
  256
370
   -1
100
AcDbLine
 10
27.8
 20
13.2
 11
29.8
 21
13.2
  0
LINE
  5
FB
100
AcDbEntity
  8
BM280
  6
ByLayer
 62
  256
370
   -1
100
AcDbLine
 10
29.8
 20
14.7
 11
25.8
 21
14.7
  0
LINE
  5
FC
100
AcDbEntity
  8
BM280
  6
ByLayer
 62
  256
370
   -1
100
AcDbLine
 10
25.8
 20
14.7
 11
24.8
 21
14.2
  0
LINE
  5
FD
100
AcDbEntity
  8
BM280
  6
ByLayer
 62
  256
370
   -1
100
AcDbLine
 10
15.9
 20
12.8
 11
23.8
 21
12.8
  0
LINE
  5
FE
100
AcDbEntity
  8
BM280
  6
ByLayer
 62
  256
370
   -1
100
AcDbLine
 10
23.8
 20
12.8
 11
24.8
 21
13.3
  0
LINE
  5
FF
100
AcDbEntity
  8
BM280
  6
ByLayer
 62
  256
370
   -1
100
AcDbLine
 10
24.8
 20
13.3
 11
24.8
 21
14.2
  0
MTEXT
  5
100
100
AcDbEntity
  8
BM280
  6
ByLayer
 62
  256
370
   -1
100
AcDbMText
 10
33.5
 20
15.2
 30
0
 40
2
 41
7.777777777777777
 71
    1
 72
    1
  1
BM280
  7
standard
210
0
220
0
230
1
 50
0
 73
    2
 44
1
  0
LWPOLYLINE
  5
101
100
AcDbEntity
  8
BM280
  6
ByLayer
 62
  256
370
   -1
100
AcDbPolyline
 90
    4
 70
    1
 43
0
 10
29.6
 20
9.600000000000001
 10
41.8
 20
9.600000000000001
 10
41.8
 20
18.9
 10
29.6
 20
18.9
  0
LWPOLYLINE
  5
102
100
AcDbEntity
  8
GY9265
  6
ByLayer
 62
  256
370
   -1
100
AcDbPolyline
 90
    4
 70
    1
 43
0
 10
29.8
 20
19.8
 10
32.5
 20
19.8
 10
32.5
 20
21.2
 10
29.8
 20
21.2
  0
MTEXT
  5
103
100
AcDbEntity
  8
GY9265
  6
ByLayer
 62
  256
370
   -1
100
AcDbMText
 10
30
 20
21
 30
0
 40
1
 41
2.333333121331184
 71
    1
 72
    1
  1
FSY
  7
standard
210
0
220
0
230
1
 50
0
 73
    2
 44
1
  0
LWPOLYLINE
  5
104
100
AcDbEntity
  8
GY9265
  6
ByLayer
 62
  256
370
   -1
100
AcDbPolyline
 90
    4
 70
    1
 43
0
 10
29.8
 20
21.3
 10
32.5
 20
21.3
 10
32.5
 20
22.7
 10
29.8
 20
22.7
  0
LWPOLYLINE
  5
105
100
AcDbEntity
  8
GY9265
  6
ByLayer
 62
  256
370
   -1
100
AcDbPolyline
 90
    4
 70
    1
 43
0
 10
29.8
 20
22.8
 10
32.5
 20
22.8
 10
32.5
 20
24.2
 10
29.8
 20
24.2
  0
LWPOLYLINE
  5
106
100
AcDbEntity
  8
GY9265
  6
ByLayer
 62
  256
370
   -1
100
AcDbPolyline
 90
    4
 70
    1
 43
0
 10
29.8
 20
24.3
 10
32.5
 20
24.3
 10
32.5
 20
25.7
 10
29.8
 20
25.7
  0
LWPOLYLINE
  5
107
100
AcDbEntity
  8
GY9265
  6
ByLayer
 62
  256
370
   -1
100
AcDbPolyline
 90
    4
 70
    1
 43
0
 10
29.8
 20
25.8
 10
32.5
 20
25.8
 10
32.5
 20
27.2
 10
29.8
 20
27.2
  0
LWPOLYLINE
  5
108
100
AcDbEntity
  8
GY9265
  6
ByLayer
 62
  256
370
   -1
100
AcDbPolyline
 90
    4
 70
    1
 43
0
 10
29.8
 20
27.3
 10
32.5
 20
27.3
 10
32.5
 20
28.7
 10
29.8
 20
28.7
  0
LWPOLYLINE
  5
109
100
AcDbEntity
  8
GY9265
  6
ByLayer
 62
  256
370
   -1
100
AcDbPolyline
 90
    4
 70
    1
 43
0
 10
29.8
 20
28.8
 10
32.5
 20
28.8
 10
32.5
 20
30.2
 10
29.8
 20
30.2
  0
LWPOLYLINE
  5
10A
100
AcDbEntity
  8
GY9265
  6
ByLayer
 62
  256
370
   -1
100
AcDbPolyline
 90
    4
 70
    1
 43
0
 10
29.8
 20
30.3
 10
32.5
 20
30.3
 10
32.5
 20
31.7
 10
29.8
 20
31.7
  0
LWPOLYLINE
  5
10B
100
AcDbEntity
  8
GY9265
  6
ByLayer
 62
  256
370
   -1
100
AcDbPolyline
 90
    4
 70
    1
 43
0
 10
29.8
 20
31.8
 10
32.5
 20
31.8
 10
32.5
 20
33.2
 10
29.8
 20
33.2
  0
LWPOLYLINE
  5
10C
100
AcDbEntity
  8
GY9265
  6
ByLayer
 62
  256
370
   -1
100
AcDbPolyline
 90
    4
 70
    1
 43
0
 10
29.8
 20
33.3
 10
32.5
 20
33.3
 10
32.5
 20
34.7
 10
29.8
 20
34.7
  0
MTEXT
  5
10D
100
AcDbEntity
  8
GY9265
  6
ByLayer
 62
  256
370
   -1
100
AcDbMText
 10
30
 20
22.5
 30
0
 40
1
 41
2.222222010220073
 71
    1
 72
    1
  1
NCS
  7
standard
210
0
220
0
230
1
 50
0
 73
    2
 44
1
  0
MTEXT
  5
10E
100
AcDbEntity
  8
GY9265
  6
ByLayer
 62
  256
370
   -1
100
AcDbMText
 10
30
 20
24
 30
0
 40
1
 41
1.777777777777778
 71
    1
 72
    1
  1
INT
  7
standard
210
0
220
0
230
1
 50
0
 73
    2
 44
1
  0
MTEXT
  5
10F
100
AcDbEntity
  8
GY9265
  6
ByLayer
 62
  256
370
   -1
100
AcDbMText
 10
30
 20
25.5
 30
0
 40
1
 41
2.333333121331246
 71
    1
 72
    1
  1
SDO
  7
standard
210
0
220
0
230
1
 50
0
 73
    2
 44
1
  0
MTEXT
  5
110
100
AcDbEntity
  8
GY9265
  6
ByLayer
 62
  256
370
   -1
100
AcDbMText
 10
30
 20
27
 30
0
 40
1
 41
2
 71
    1
 72
    1
  1
ECL
  7
standard
210
0
220
0
230
1
 50
0
 73
    2
 44
1
  0
MTEXT
  5
111
100
AcDbEntity
  8
GY9265
  6
ByLayer
 62
  256
370
   -1
100
AcDbMText
 10
30
 20
28.5
 30
0
 40
1
 41
2.333333333333395
 71
    1
 72
    1
  1
EDA
  7
standard
210
0
220
0
230
1
 50
0
 73
    2
 44
1
  0
MTEXT
  5
112
100
AcDbEntity
  8
GY9265
  6
ByLayer
 62
  256
370
   -1
100
AcDbMText
 10
30
 20
30
 30
0
 40
1
 41
2.444444232442357
 71
    1
 72
    1
  1
SDA
  7
standard
210
0
220
0
230
1
 50
0
 73
    2
 44
1
  0
MTEXT
  5
113
100
AcDbEntity
  8
GY9265
  6
ByLayer
 62
  256
370
   -1
100
AcDbMText
 10
30
 20
31.5
 30
0
 40
1
 41
2.111110899108962
 71
    1
 72
    1
  1
SCL
  7
standard
210
0
220
0
230
1
 50
0
 73
    2
 44
1
  0
MTEXT
  5
114
100
AcDbEntity
  8
GY9265
  6
ByLayer
 62
  256
370
   -1
100
AcDbMText
 10
30
 20
33
 30
0
 40
1
 41
2.333333333333457
 71
    1
 72
    1
  1
GND
  7
standard
210
0
220
0
230
1
 50
0
 73
    2
 44
1
  0
MTEXT
  5
115
100
AcDbEntity
  8
GY9265
  6
ByLayer
 62
  256
370
   -1
100
AcDbMText
 10
30
 20
34.5
 30
0
 40
1
 41
2.222222222222222
 71
    1
 72
    1
  1
VCC
  7
standard
210
0
220
0
230
1
 50
0
 73
    2
 44
1
  0
MTEXT
  5
116
100
AcDbEntity
  8
GY9265
  6
ByLayer
 62
  256
370
   -1
100
AcDbMText
 10
33.8
 20
27.8
 30
0
 40
2
 41
10.88888888888926
 71
    1
 72
    1
  1
GY92/65
  7
standard
210
0
220
0
230
1
 50
0
 73
    2
 44
1
  0
LWPOLYLINE
  5
117
100
AcDbEntity
  8
GY9265
  6
ByLayer
 62
  256
370
   -1
100
AcDbPolyline
 90
    4
 70
    1
 43
0
 10
29.6
 20
19.6
 10
45.8
 20
19.6
 10
45.8
 20
34.90000000000001
 10
29.6
 20
34.90000000000001
  0
LINE
  5
118
100
AcDbEntity
  8
BM280
  6
ByLayer
 62
  256
370
   -1
100
AcDbLine
 10
21.3
 20
0.4000000000000006
 11
22.3
 21
0.9000000000000008
  0
LINE
  5
119
100
AcDbEntity
  8
BM280
  6
ByLayer
 62
  256
370
   -1
100
AcDbLine
 10
23.3
 20
17.7
 11
22.3
 21
17.2
  0
LINE
  5
11A
100
AcDbEntity
  8
BM280
  6
ByLayer
 62
  256
370
   -1
100
AcDbLine
 10
22.3
 20
17.2
 11
22.3
 21
0.9000000000000008
  0
LINE
  5
11B
100
AcDbEntity
  8
BM280
  6
ByLayer
 62
  256
370
   -1
100
AcDbLine
 10
22.8
 20
16.2
 11
21.8
 21
15.7
  0
LINE
  5
11C
100
AcDbEntity
  8
BM280
  6
ByLayer
 62
  256
370
   -1
100
AcDbLine
 10
21.8
 20
15.7
 11
21.8
 21
2.400000000000001
  0
LINE
  5
11D
100
AcDbEntity
  8
BM280
  6
ByLayer
 62
  256
370
   -1
100
AcDbLine
 10
21.8
 20
2.400000000000001
 11
20.8
 21
1.900000000000001
  0
LINE
  5
11E
100
AcDbEntity
  8
BM280
  6
ByLayer
 62
  256
370
   -1
100
AcDbLine
 10
23.3
 20
17.7
 11
29.8
 21
17.7
  0
LINE
  5
11F
100
AcDbEntity
  8
BM280
  6
ByLayer
 62
  256
370
   -1
100
AcDbLine
 10
22.8
 20
16.2
 11
29.8
 21
16.2
  0
LINE
  5
120
100
AcDbEntity
  8
BM280
  6
ByLayer
 62
  256
370
   -1
100
AcDbLine
 10
20.8
 20
1.900000000000001
 11
15.8
 21
1.900000000000001
  0
LINE
  5
121
100
AcDbEntity
  8
BM280
  6
ByLayer
 62
  256
370
   -1
100
AcDbLine
 10
21.3
 20
0.4000000000000006
 11
15.8
 21
0.4000000000000008
  0
LINE
  5
122
100
AcDbEntity
  8
SDMMC_card
  6
ByLayer
 62
  256
370
   -1
100
AcDbLine
 10
21.3
 20
0.6000000000000005
 11
15.8
 21
0.6000000000000008
  0
LINE
  5
123
100
AcDbEntity
  8
GY9265
  6
ByLayer
 62
  256
370
   -1
100
AcDbLine
 10
15.8
 20
0.2000000000000008
 11
20.3
 21
0.2000000000000004
  0
LINE
  5
124
100
AcDbEntity
  8
GY9265
  6
ByLayer
 62
  256
370
   -1
100
AcDbLine
 10
20.3
 20
0.2000000000000004
 11
21.3
 21
0.6000000000000005
  0
LINE
  5
125
100
AcDbEntity
  8
GY9265
  6
ByLayer
 62
  256
370
   -1
100
AcDbLine
 10
21.3
 20
0.6000000000000005
 11
21.3
 21
33.2
  0
LINE
  5
126
100
AcDbEntity
  8
GY9265
  6
ByLayer
 62
  256
370
   -1
100
AcDbLine
 10
29.8
 20
33.7
 11
22.3
 21
33.7
  0
LINE
  5
127
100
AcDbEntity
  8
GY9265
  6
ByLayer
 62
  256
370
   -1
100
AcDbLine
 10
22.3
 20
33.7
 11
21.3
 21
33.2
  0
LINE
  5
128
100
AcDbEntity
  8
GY9265
  6
ByLayer
 62
  256
370
   -1
100
AcDbLine
 10
29.8
 20
32.2
 11
21.8
 21
32.2
  0
LINE
  5
129
100
AcDbEntity
  8
GY9265
  6
ByLayer
 62
  256
370
   -1
100
AcDbLine
 10
21.8
 20
32.2
 11
20.8
 21
31.7
  0
LINE
  5
12A
100
AcDbEntity
  8
GY9265
  6
ByLayer
 62
  256
370
   -1
100
AcDbLine
 10
20.8
 20
31.7
 11
20.8
 21
2.100000000000001
  0
LINE
  5
12B
100
AcDbEntity
  8
GY9265
  6
ByLayer
 62
  256
370
   -1
100
AcDbLine
 10
20.8
 20
2.100000000000001
 11
19.8
 21
1.700000000000001
  0
LINE
  5
12C
100
AcDbEntity
  8
GY9265
  6
ByLayer
 62
  256
370
   -1
100
AcDbLine
 10
19.8
 20
1.700000000000001
 11
15.8
 21
1.700000000000001
  0
LINE
  5
12D
100
AcDbEntity
  8
GY9265
  6
ByLayer
 62
  256
370
   -1
100
AcDbLine
 10
15.8
 20
12.6
 11
19.4
 21
12.6
  0
LINE
  5
12E
100
AcDbEntity
  8
GY9265
  6
ByLayer
 62
  256
370
   -1
100
AcDbLine
 10
19.4
 20
12.6
 11
20.3
 21
13.1
  0
LINE
  5
12F
100
AcDbEntity
  8
GY9265
  6
ByLayer
 62
  256
370
   -1
100
AcDbLine
 10
20.3
 20
13.1
 11
20.3
 21
30.2
  0
LINE
  5
130
100
AcDbEntity
  8
GY9265
  6
ByLayer
 62
  256
370
   -1
100
AcDbLine
 10
20.3
 20
30.2
 11
21.3
 21
30.7
  0
LINE
  5
131
100
AcDbEntity
  8
GY9265
  6
ByLayer
 62
  256
370
   -1
100
AcDbLine
 10
21.3
 20
30.7
 11
29.8
 21
30.7
  0
LINE
  5
132
100
AcDbEntity
  8
GY9265
  6
ByLayer
 62
  256
370
   -1
100
AcDbLine
 10
29.8
 20
29.2
 11
20.7
 21
29.2
  0
LINE
  5
133
100
AcDbEntity
  8
GY9265
  6
ByLayer
 62
  256
370
   -1
100
AcDbLine
 10
20.7
 20
29.2
 11
19.8
 21
28.7
  0
LINE
  5
134
100
AcDbEntity
  8
GY9265
  6
ByLayer
 62
  256
370
   -1
100
AcDbLine
 10
19.8
 20
28.7
 11
19.8
 21
22.1
  0
LINE
  5
135
100
AcDbEntity
  8
GY9265
  6
ByLayer
 62
  256
370
   -1
100
AcDbLine
 10
19.8
 20
22.1
 11
18.8
 21
21.6
  0
LINE
  5
136
100
AcDbEntity
  8
GY9265
  6
ByLayer
 62
  256
370
   -1
100
AcDbLine
 10
18.8
 20
21.6
 11
15.8
 21
21.6
  0
LINE
  5
137
100
AcDbEntity
  8
GY9265
  6
ByLayer
 62
  256
370
   -1
100
AcDbLine
 10
29.8
 20
27.7
 11
28.8
 21
27.7
  0
LINE
  5
138
100
AcDbEntity
  8
GY9265
  6
ByLayer
 62
  256
370
   -1
100
AcDbLine
 10
28.8
 20
27.7
 11
27.8
 21
28.2
  0
LINE
  5
139
100
AcDbEntity
  8
GY9265
  6
ByLayer
 62
  256
370
   -1
100
AcDbLine
 10
27.8
 20
28.2
 11
27.8
 21
29.2
  0
LINE
  5
13A
100
AcDbEntity
  8
GY9265
  6
ByLayer
 62
  256
370
   -1
100
AcDbLine
 10
29.8
 20
26.3
 11
28.3
 21
26.3
  0
LINE
  5
13B
100
AcDbEntity
  8
GY9265
  6
ByLayer
 62
  256
370
   -1
100
AcDbLine
 10
28.3
 20
26.3
 11
27.3
 21
26.9
  0
LINE
  5
13C
100
AcDbEntity
  8
GY9265
  6
ByLayer
 62
  256
370
   -1
100
AcDbLine
 10
27.3
 20
26.9
 11
27.3
 21
30.7
  0
LWPOLYLINE
  5
13D
100
AcDbEntity
  8
0
  6
ByLayer
 62
  256
370
   -1
100
AcDbPolyline
 90
    4
 70
    1
 43
0
 10
13.3
 20
0
 10
16
 20
0
 10
16
 20
1.4
 10
13.3
 20
1.4
  0
MTEXT
  5
13E
100
AcDbEntity
  8
0
  6
ByLayer
 62
  256
370
   -1
100
AcDbMText
 10
13.5
 20
1.2
 30
0
 40
1
 41
2.222222222222346
 71
    1
 72
    1
  1
3V3
  7
standard
210
0
220
0
230
1
 50
0
 73
    2
 44
1
  0
LWPOLYLINE
  5
13F
100
AcDbEntity
  8
0
  6
ByLayer
 62
  256
370
   -1
100
AcDbPolyline
 90
    4
 70
    1
 43
0
 10
13.3
 20
1.5
 10
16
 20
1.5
 10
16
 20
2.9
 10
13.3
 20
2.9
  0
LWPOLYLINE
  5
140
100
AcDbEntity
  8
0
  6
ByLayer
 62
  256
370
   -1
100
AcDbPolyline
 90
    4
 70
    1
 43
0
 10
13.3
 20
3
 10
16
 20
3
 10
16
 20
4.4
 10
13.3
 20
4.4
  0
LWPOLYLINE
  5
141
100
AcDbEntity
  8
0
  6
ByLayer
 62
  256
370
   -1
100
AcDbPolyline
 90
    4
 70
    1
 43
0
 10
13.3
 20
4.5
 10
16
 20
4.5
 10
16
 20
5.9
 10
13.3
 20
5.9
  0
LWPOLYLINE
  5
142
100
AcDbEntity
  8
0
  6
ByLayer
 62
  256
370
   -1
100
AcDbPolyline
 90
    4
 70
    1
 43
0
 10
13.3
 20
6
 10
16
 20
6
 10
16
 20
7.4
 10
13.3
 20
7.4
  0
LWPOLYLINE
  5
143
100
AcDbEntity
  8
0
  6
ByLayer
 62
  256
370
   -1
100
AcDbPolyline
 90
    4
 70
    1
 43
0
 10
13.30000000000001
 20
7.5
 10
16.00000000000001
 20
7.5
 10
16.00000000000001
 20
8.9
 10
13.30000000000001
 20
8.9
  0
LWPOLYLINE
  5
144
100
AcDbEntity
  8
0
  6
ByLayer
 62
  256
370
   -1
100
AcDbPolyline
 90
    4
 70
    1
 43
0
 10
13.30000000000001
 20
9
 10
16.00000000000001
 20
9
 10
16.00000000000001
 20
10.4
 10
13.30000000000001
 20
10.4
  0
LWPOLYLINE
  5
145
100
AcDbEntity
  8
0
  6
ByLayer
 62
  256
370
   -1
100
AcDbPolyline
 90
    4
 70
    1
 43
0
 10
13.30000000000001
 20
10.5
 10
16.00000000000001
 20
10.5
 10
16.00000000000001
 20
11.9
 10
13.30000000000001
 20
11.9
  0
LWPOLYLINE
  5
146
100
AcDbEntity
  8
0
  6
ByLayer
 62
  256
370
   -1
100
AcDbPolyline
 90
    4
 70
    1
 43
0
 10
13.30000000000001
 20
12
 10
16.00000000000001
 20
12
 10
16.00000000000001
 20
13.4
 10
13.30000000000001
 20
13.4
  0
LWPOLYLINE
  5
147
100
AcDbEntity
  8
0
  6
ByLayer
 62
  256
370
   -1
100
AcDbPolyline
 90
    4
 70
    1
 43
0
 10
13.30000000000001
 20
13.5
 10
16.00000000000001
 20
13.5
 10
16.00000000000001
 20
14.9
 10
13.30000000000001
 20
14.9
  0
LWPOLYLINE
  5
148
100
AcDbEntity
  8
0
  6
ByLayer
 62
  256
370
   -1
100
AcDbPolyline
 90
    4
 70
    1
 43
0
 10
13.30000000000001
 20
15
 10
16.00000000000001
 20
15
 10
16.00000000000001
 20
16.4
 10
13.30000000000001
 20
16.4
  0
LWPOLYLINE
  5
149
100
AcDbEntity
  8
0
  6
ByLayer
 62
  256
370
   -1
100
AcDbPolyline
 90
    4
 70
    1
 43
0
 10
13.30000000000001
 20
16.5
 10
16.00000000000001
 20
16.5
 10
16.00000000000001
 20
17.9
 10
13.30000000000001
 20
17.9
  0
LWPOLYLINE
  5
14A
100
AcDbEntity
  8
0
  6
ByLayer
 62
  256
370
   -1
100
AcDbPolyline
 90
    4
 70
    1
 43
0
 10
13.30000000000001
 20
18
 10
16.00000000000001
 20
18
 10
16.00000000000001
 20
19.4
 10
13.30000000000001
 20
19.4
  0
LWPOLYLINE
  5
14B
100
AcDbEntity
  8
0
  6
ByLayer
 62
  256
370
   -1
100
AcDbPolyline
 90
    4
 70
    1
 43
0
 10
13.30000000000001
 20
19.5
 10
16.00000000000001
 20
19.5
 10
16.00000000000001
 20
20.9
 10
13.30000000000001
 20
20.9
  0
LWPOLYLINE
  5
14C
100
AcDbEntity
  8
0
  6
ByLayer
 62
  256
370
   -1
100
AcDbPolyline
 90
    4
 70
    1
 43
0
 10
13.30000000000002
 20
21
 10
16.00000000000002
 20
21
 10
16.00000000000002
 20
22.4
 10
13.30000000000002
 20
22.4
  0
MTEXT
  5
14D
100
AcDbEntity
  8
0
  6
ByLayer
 62
  256
370
   -1
100
AcDbMText
 10
13.5
 20
2.7
 30
0
 40
1
 41
2.333333333333457
 71
    1
 72
    1
  1
GND
  7
standard
210
0
220
0
230
1
 50
0
 73
    2
 44
1
  0
MTEXT
  5
14E
100
AcDbEntity
  8
0
  6
ByLayer
 62
  256
370
   -1
100
AcDbMText
 10
13.5
 20
4.2
 30
0
 40
1
 41
1.888888888889013
 71
    1
 72
    1
  1
G15
  7
standard
210
0
220
0
230
1
 50
0
 73
    2
 44
1
  0
MTEXT
  5
14F
100
AcDbEntity
  8
0
  6
ByLayer
 62
  256
370
   -1
100
AcDbMText
 10
13.5
 20
5.7
 30
0
 40
1
 41
2.111111111111173
 71
    1
 72
    1
  1
G02
  7
standard
210
0
220
0
230
1
 50
0
 73
    2
 44
1
  0
MTEXT
  5
150
100
AcDbEntity
  8
0
  6
ByLayer
 62
  256
370
   -1
100
AcDbMText
 10
13.5
 20
7.200000000000001
 30
0
 40
1
 41
2.222222222222284
 71
    1
 72
    1
  1
G04
  7
standard
210
0
220
0
230
1
 50
0
 73
    2
 44
1
  0
MTEXT
  5
151
100
AcDbEntity
  8
0
  6
ByLayer
 62
  256
370
   -1
100
AcDbMText
 10
13.5
 20
8.700000000000001
 30
0
 40
1
 41
1.888888888889013
 71
    1
 72
    1
  1
G16
  7
standard
210
0
220
0
230
1
 50
0
 73
    2
 44
1
  0
MTEXT
  5
152
100
AcDbEntity
  8
0
  6
ByLayer
 62
  256
370
   -1
100
AcDbMText
 10
13.5
 20
10.2
 30
0
 40
1
 41
1.888888888888951
 71
    1
 72
    1
  1
G17
  7
standard
210
0
220
0
230
1
 50
0
 73
    2
 44
1
  0
MTEXT
  5
153
100
AcDbEntity
  8
0
  6
ByLayer
 62
  256
370
   -1
100
AcDbMText
 10
13.5
 20
11.7
 30
0
 40
1
 41
2.111111111111235
 71
    1
 72
    1
  1
G05
  7
standard
210
0
220
0
230
1
 50
0
 73
    2
 44
1
  0
MTEXT
  5
154
100
AcDbEntity
  8
0
  6
ByLayer
 62
  256
370
   -1
100
AcDbMText
 10
13.5
 20
13.2
 30
0
 40
1
 41
1.888888888888951
 71
    1
 72
    1
  1
G18
  7
standard
210
0
220
0
230
1
 50
0
 73
    2
 44
1
  0
MTEXT
  5
155
100
AcDbEntity
  8
0
  6
ByLayer
 62
  256
370
   -1
100
AcDbMText
 10
13.5
 20
14.7
 30
0
 40
1
 41
1.888888888888951
 71
    1
 72
    1
  1
G19
  7
standard
210
0
220
0
230
1
 50
0
 73
    2
 44
1
  0
MTEXT
  5
156
100
AcDbEntity
  8
0
  6
ByLayer
 62
  256
370
   -1
100
AcDbMText
 10
13.5
 20
16.2
 30
0
 40
1
 41
1.888888888888951
 71
    1
 72
    1
  1
G21
  7
standard
210
0
220
0
230
1
 50
0
 73
    2
 44
1
  0
MTEXT
  5
157
100
AcDbEntity
  8
0
  6
ByLayer
 62
  256
370
   -1
100
AcDbMText
 10
13.5
 20
17.7
 30
0
 40
1
 41
2.111111111111235
 71
    1
 72
    1
  1
G03
  7
standard
210
0
220
0
230
1
 50
0
 73
    2
 44
1
  0
MTEXT
  5
158
100
AcDbEntity
  8
0
  6
ByLayer
 62
  256
370
   -1
100
AcDbMText
 10
13.5
 20
19.2
 30
0
 40
1
 41
1.888888888888951
 71
    1
 72
    1
  1
G01
  7
standard
210
0
220
0
230
1
 50
0
 73
    2
 44
1
  0
MTEXT
  5
159
100
AcDbEntity
  8
0
  6
ByLayer
 62
  256
370
   -1
100
AcDbMText
 10
13.5
 20
20.7
 30
0
 40
1
 41
2.111111111111173
 71
    1
 72
    1
  1
G22
  7
standard
210
0
220
0
230
1
 50
0
 73
    2
 44
1
  0
MTEXT
  5
15A
100
AcDbEntity
  8
0
  6
ByLayer
 62
  256
370
   -1
100
AcDbMText
 10
13.5
 20
22.2
 30
0
 40
1
 41
2.111111111111235
 71
    1
 72
    1
  1
G23
  7
standard
210
0
220
0
230
1
 50
0
 73
    2
 44
1
  0
MTEXT
  5
15B
100
AcDbEntity
  8
esp32_alt_names
  6
ByLayer
 62
  256
370
   -1
100
AcDbMText
 10
10.7
 20
10.2
 30
0
 40
1
 41
2.333333333333333
 71
    1
 72
    1
  1
TX2
  7
standard
210
0
220
0
230
1
 50
0
 73
    2
 44
1
  0
MTEXT
  5
15C
100
AcDbEntity
  8
esp32_alt_names
  6
ByLayer
 62
  256
370
   -1
100
AcDbMText
 10
10.7
 20
8.700000000000001
 30
0
 40
1
 41
2.333333333333333
 71
    1
 72
    1
  1
RX2
  7
standard
210
0
220
0
230
1
 50
0
 73
    2
 44
1
  0
MTEXT
  5
15D
100
AcDbEntity
  8
esp32_alt_names
  6
ByLayer
 62
  256
370
   -1
100
AcDbMText
 10
10.7
 20
17.8
 30
0
 40
1
 41
2.333333333333333
 71
    1
 72
    1
  1
RX0\P
  7
standard
210
0
220
0
230
1
 50
0
 73
    2
 44
1
  0
MTEXT
  5
15E
100
AcDbEntity
  8
esp32_alt_names
  6
ByLayer
 62
  256
370
   -1
100
AcDbMText
 10
10.7
 20
19.2
 30
0
 40
1
 41
2.333333333333333
 71
    1
 72
    1
  1
TX0\P
  7
standard
210
0
220
0
230
1
 50
0
 73
    2
 44
1
  0
MTEXT
  5
15F
100
AcDbEntity
  8
esp32_alt_names
  6
ByLayer
 62
  256
370
   -1
100
AcDbMText
 10
10.7
 20
22.2
 30
0
 40
1
 41
2.444444232442357
 71
    1
 72
    1
  1
SDA
  7
standard
210
0
220
0
230
1
 50
0
 73
    2
 44
1
  0
MTEXT
  5
160
100
AcDbEntity
  8
esp32_alt_names
  6
ByLayer
 62
  256
370
   -1
100
AcDbMText
 10
7.000000000000001
 20
14.7
 30
0
 40
1
 41
2.777777565775629
 71
    1
 72
    1
  1
MISO
  7
standard
210
0
220
0
230
1
 50
0
 73
    2
 44
1
  0
MTEXT
  5
161
100
AcDbEntity
  8
esp32_alt_names
  6
ByLayer
 62
  256
370
   -1
100
AcDbMText
 10
7.000000000000001
 20
22.2
 30
0
 40
1
 41
2.777777565775628
 71
    1
 72
    1
  1
MOSI
  7
standard
210
0
220
0
230
1
 50
0
 73
    2
 44
1
  0
MTEXT
  5
162
100
AcDbEntity
  8
esp32_alt_names
  6
ByLayer
 62
  256
370
   -1
100
AcDbMText
 10
7
 20
13.2
 30
0
 40
1
 41
2.111111111111173
 71
    1
 72
    1
  1
CLK
  7
standard
210
0
220
0
230
1
 50
0
 73
    2
 44
1
  0
MTEXT
  5
163
100
AcDbEntity
  8
esp32_alt_names
  6
ByLayer
 62
  256
370
   -1
100
AcDbMText
 10
7
 20
11.7
 30
0
 40
1
 41
2.111110899109024
 71
    1
 72
    1
  1
CS0
  7
standard
210
0
220
0
230
1
 50
0
 73
    2
 44
1
  0
LWPOLYLINE
  5
164
100
AcDbEntity
  8
0
  6
ByLayer
 62
  256
370
   -1
100
AcDbPolyline
 90
    4
 70
    1
 43
0
 10
-6.2
 20
-0.2
 10
16.2
 20
-0.2
 10
16.2
 20
22.6
 10
-6.2
 20
22.6
  0
LINE
  5
165
100
AcDbEntity
  8
SDMMC_card
  6
ByLayer
 62
  256
370
   -1
100
AcDbLine
 10
0.8000000000000007
 20
-5.199999999999999
 11
-9
 21
-5.2
  0
LINE
  5
166
100
AcDbEntity
  8
SDMMC_card
  6
ByLayer
 62
  256
370
   -1
100
AcDbLine
 10
-9
 20
-5.2
 11
-9
 21
-5
  0
LINE
  5
167
100
AcDbEntity
  8
RC_reciever
  6
ByLayer
 62
  256
370
   -1
100
AcDbLine
 10
-6.199999999999999
 20
-2.199999999999999
 11
-16
 21
-2.2
  0
LINE
  5
168
100
AcDbEntity
  8
RC_reciever
  6
ByLayer
 62
  256
370
   -1
100
AcDbLine
 10
-16
 20
-2.2
 11
-16
 21
-2
  0
MTEXT
  5
169
100
AcDbEntity
  8
SD_card_SPI
  6
ByLayer
 62
  256
370
   -1
100
AcDbMText
 10
30
 20
-2.2
 30
0
 40
1
 41
2.333333333333457
 71
    1
 72
    1
  1
GND
  7
STANDARD
210
0
220
0
230
1
 50
0
 73
    2
 44
1
  0
MTEXT
  5
16A
100
AcDbEntity
  8
SD_card_SPI
  6
ByLayer
 62
  256
370
   -1
100
AcDbMText
 10
30
 20
-3.7
 30
0
 40
1
 41
2.222222222222346
 71
    1
 72
    1
  1
3V3
  7
STANDARD
210
0
220
0
230
1
 50
0
 73
    2
 44
1
  0
MTEXT
  5
16B
100
AcDbEntity
  8
SD_card_SPI
  6
ByLayer
 62
  256
370
   -1
100
AcDbMText
 10
30
 20
-5.2
 30
0
 40
1
 41
2.222222222222284
 71
    1
 72
    1
  1
5V0
  7
STANDARD
210
0
220
0
230
1
 50
0
 73
    2
 44
1
  0
MTEXT
  5
16C
100
AcDbEntity
  8
SD_card_SPI
  6
ByLayer
 62
  256
370
   -1
100
AcDbMText
 10
30
 20
-6.7
 30
0
 40
1
 41
1.333333121331246
 71
    1
 72
    1
  1
CS
  7
STANDARD
210
0
220
0
230
1
 50
0
 73
    2
 44
1
  0
MTEXT
  5
16D
100
AcDbEntity
  8
SD_card_SPI
  6
ByLayer
 62
  256
370
   -1
100
AcDbMText
 10
30
 20
-8.199999999999999
 30
0
 40
1
 41
2.777777565775628
 71
    1
 72
    1
  1
MOSI
  7
STANDARD
210
0
220
0
230
1
 50
0
 73
    2
 44
1
  0
MTEXT
  5
16E
100
AcDbEntity
  8
SD_card_SPI
  6
ByLayer
 62
  256
370
   -1
100
AcDbMText
 10
30
 20
-9.700000000000001
 30
0
 40
1
 41
2.222222010220073
 71
    1
 72
    1
  1
SCK
  7
STANDARD
210
0
220
0
230
1
 50
0
 73
    2
 44
1
  0
MTEXT
  5
16F
100
AcDbEntity
  8
SD_card_SPI
  6
ByLayer
 62
  256
370
   -1
100
AcDbMText
 10
30
 20
-11.2
 30
0
 40
1
 41
2.777777565775629
 71
    1
 72
    1
  1
MISO
  7
STANDARD
210
0
220
0
230
1
 50
0
 73
    2
 44
1
  0
MTEXT
  5
170
100
AcDbEntity
  8
SD_card_SPI
  6
ByLayer
 62
  256
370
   -1
100
AcDbMText
 10
30
 20
-12.7
 30
0
 40
1
 41
2.333333333333457
 71
    1
 72
    1
  1
GND
  7
STANDARD
210
0
220
0
230
1
 50
0
 73
    2
 44
1
  0
LWPOLYLINE
  5
171
100
AcDbEntity
  8
SD_card_SPI
  6
ByLayer
 62
  256
370
   -1
100
AcDbPolyline
 90
    4
 70
    1
 43
0
 10
29.8
 20
-12.5
 10
33
 20
-12.5
 10
33
 20
-13.9
 10
29.8
 20
-13.9
  0
LWPOLYLINE
  5
172
100
AcDbEntity
  8
SD_card_SPI
  6
ByLayer
 62
  256
370
   -1
100
AcDbPolyline
 90
    4
 70
    1
 43
0
 10
29.8
 20
-11
 10
33
 20
-11
 10
33
 20
-12.4
 10
29.8
 20
-12.4
  0
LWPOLYLINE
  5
173
100
AcDbEntity
  8
SD_card_SPI
  6
ByLayer
 62
  256
370
   -1
100
AcDbPolyline
 90
    4
 70
    1
 43
0
 10
29.8
 20
-9.499999999999996
 10
33
 20
-9.499999999999996
 10
33
 20
-10.9
 10
29.8
 20
-10.9
  0
LWPOLYLINE
  5
174
100
AcDbEntity
  8
SD_card_SPI
  6
ByLayer
 62
  256
370
   -1
100
AcDbPolyline
 90
    4
 70
    1
 43
0
 10
29.8
 20
-7.999999999999995
 10
33
 20
-7.999999999999995
 10
33
 20
-9.399999999999995
 10
29.8
 20
-9.399999999999995
  0
LWPOLYLINE
  5
175
100
AcDbEntity
  8
SD_card_SPI
  6
ByLayer
 62
  256
370
   -1
100
AcDbPolyline
 90
    4
 70
    1
 43
0
 10
29.8
 20
-6.499999999999993
 10
33
 20
-6.499999999999993
 10
33
 20
-7.899999999999993
 10
29.8
 20
-7.899999999999993
  0
LWPOLYLINE
  5
176
100
AcDbEntity
  8
SD_card_SPI
  6
ByLayer
 62
  256
370
   -1
100
AcDbPolyline
 90
    4
 70
    1
 43
0
 10
29.8
 20
-4.999999999999991
 10
33
 20
-4.999999999999991
 10
33
 20
-6.399999999999991
 10
29.8
 20
-6.399999999999991
  0
LWPOLYLINE
  5
177
100
AcDbEntity
  8
SD_card_SPI
  6
ByLayer
 62
  256
370
   -1
100
AcDbPolyline
 90
    4
 70
    1
 43
0
 10
29.8
 20
-3.499999999999989
 10
33
 20
-3.499999999999989
 10
33
 20
-4.89999999999999
 10
29.8
 20
-4.89999999999999
  0
LWPOLYLINE
  5
178
100
AcDbEntity
  8
SD_card_SPI
  6
ByLayer
 62
  256
370
   -1
100
AcDbPolyline
 90
    4
 70
    1
 43
0
 10
29.8
 20
-1.999999999999988
 10
33
 20
-1.999999999999988
 10
33
 20
-3.399999999999988
 10
29.8
 20
-3.399999999999988
  0
MTEXT
  5
179
100
AcDbEntity
  8
SD_card_SPI
  6
ByLayer
 62
  256
370
   -1
100
AcDbMText
 10
34
 20
-6
 30
0
 40
2
 41
4.444444020440269
 71
    1
 72
    1
  1
SD/\PSPI
  7
STANDARD
210
0
220
0
230
1
 50
0
 73
    2
 44
1
  0
MTEXT
  5
17A
100
AcDbEntity
  8
SDMMC_card
  6
ByLayer
 62
  256
370
   -1
100
AcDbMText
 10
34
 20
-5
 30
0
 40
2
 41
4.888888888888889
 71
    1
 72
    1
  1
SD/\PMMC
  7
STANDARD
210
0
220
0
230
1
 50
0
 73
    2
 44
1
  0
LWPOLYLINE
  5
17B
100
AcDbEntity
  8
SD_card_SPI
  6
ByLayer
 62
  256
370
   -1
100
AcDbPolyline
 90
    4
 70
    1
 43
0
 10
29.6
 20
-14.1
 10
39.8
 20
-14.1
 10
39.8
 20
-1.8
 10
29.6
 20
-1.8
  0
LINE
  5
17C
100
AcDbEntity
  8
SD_card_SPI
  6
ByLayer
 62
  256
370
   -1
100
AcDbLine
 10
15.8
 20
0.6000000000000001
 11
21.8
 21
0.6000000000000001
  0
LINE
  5
17D
100
AcDbEntity
  8
SD_card_SPI
  6
ByLayer
 62
  256
370
   -1
100
AcDbLine
 10
21.8
 20
0.6000000000000001
 11
22.7
 21
0.09999999999999995
  0
LINE
  5
17E
100
AcDbEntity
  8
SD_card_SPI
  6
ByLayer
 62
  256
370
   -1
100
AcDbLine
 10
22.7
 20
0.09999999999999995
 11
22.7
 21
-4
  0
LINE
  5
17F
100
AcDbEntity
  8
SD_card_SPI
  6
ByLayer
 62
  256
370
   -1
100
AcDbLine
 10
22.7
 20
-4
 11
23.5
 21
-4.5
  0
LINE
  5
180
100
AcDbEntity
  8
SD_card_SPI
  6
ByLayer
 62
  256
370
   -1
100
AcDbLine
 10
23.5
 20
-4.5
 11
29.8
 21
-4.5
  0
LINE
  5
181
100
AcDbEntity
  8
SD_card_SPI
  6
ByLayer
 62
  256
370
   -1
100
AcDbLine
 10
15.8
 20
2.1
 11
21.8
 21
2.1
  0
LINE
  5
182
100
AcDbEntity
  8
SD_card_SPI
  6
ByLayer
 62
  256
370
   -1
100
AcDbLine
 10
21.8
 20
2.1
 11
22.7
 21
2.1
  0
LINE
  5
183
100
AcDbEntity
  8
SD_card_SPI
  6
ByLayer
 62
  256
370
   -1
100
AcDbLine
 10
22.7
 20
2.1
 11
23.7
 21
1.5
  0
LINE
  5
184
100
AcDbEntity
  8
SD_card_SPI
  6
ByLayer
 62
  256
370
   -1
100
AcDbLine
 10
23.7
 20
1.5
 11
23.7
 21
-2.5
  0
LINE
  5
185
100
AcDbEntity
  8
SD_card_SPI
  6
ByLayer
 62
  256
370
   -1
100
AcDbLine
 10
23.7
 20
-2.5
 11
24.7
 21
-3
  0
LINE
  5
186
100
AcDbEntity
  8
SD_card_SPI
  6
ByLayer
 62
  256
370
   -1
100
AcDbLine
 10
24.7
 20
-3
 11
29.8
 21
-3
  0
LINE
  5
187
100
AcDbEntity
  8
SD_card_SPI
  6
ByLayer
 62
  256
370
   -1
100
AcDbLine
 10
15.8
 20
16
 11
24
 21
16
  0
LINE
  5
188
100
AcDbEntity
  8
SD_card_SPI
  6
ByLayer
 62
  256
370
   -1
100
AcDbLine
 10
24
 20
16
 11
25
 21
15.5
  0
LINE
  5
189
100
AcDbEntity
  8
SD_card_SPI
  6
ByLayer
 62
  256
370
   -1
100
AcDbLine
 10
25
 20
15.5
 11
25
 21
-7
  0
LINE
  5
18A
100
AcDbEntity
  8
SD_card_SPI
  6
ByLayer
 62
  256
370
   -1
100
AcDbLine
 10
25
 20
-7
 11
26
 21
-7.5
  0
LINE
  5
18B
100
AcDbEntity
  8
SD_card_SPI
  6
ByLayer
 62
  256
370
   -1
100
AcDbLine
 10
26
 20
-7.5
 11
29.8
 21
-7.5
  0
LINE
  5
18C
100
AcDbEntity
  8
SD_card_SPI
  6
ByLayer
 62
  256
370
   -1
100
AcDbLine
 10
29.7
 20
-9
 11
22.5
 21
-9
  0
LINE
  5
18D
100
AcDbEntity
  8
SD_card_SPI
  6
ByLayer
 62
  256
370
   -1
100
AcDbLine
 10
22.5
 20
-9
 11
21.5
 21
-8.5
  0
LINE
  5
18E
100
AcDbEntity
  8
SD_card_SPI
  6
ByLayer
 62
  256
370
   -1
100
AcDbLine
 10
20.5
 20
-11.5
 11
21.5
 21
-12
  0
LINE
  5
18F
100
AcDbEntity
  8
SD_card_SPI
  6
ByLayer
 62
  256
370
   -1
100
AcDbLine
 10
21.5
 20
-12
 11
29.8
 21
-12
  0
LINE
  5
190
100
AcDbEntity
  8
SD_card_SPI
  6
ByLayer
 62
  256
370
   -1
100
AcDbLine
 10
29.8
 20
-10.5
 11
-9.000000000000002
 21
-10.5
  0
LINE
  5
191
100
AcDbEntity
  8
SD_card_SPI
  6
ByLayer
 62
  256
370
   -1
100
AcDbLine
 10
-9.000000000000002
 20
-10.5
 11
-10
 21
-10
  0
LINE
  5
192
100
AcDbEntity
  8
SD_card_SPI
  6
ByLayer
 62
  256
370
   -1
100
AcDbLine
 10
-9.000000000000004
 20
6.4
 11
-6.000000000000003
 21
6.4
  0
LINE
  5
193
100
AcDbEntity
  8
SD_card_SPI
  6
ByLayer
 62
  256
370
   -1
100
AcDbLine
 10
-9.000000000000004
 20
6.4
 11
-10
 21
5.9
  0
LINE
  5
194
100
AcDbEntity
  8
SD_card_SPI
  6
ByLayer
 62
  256
370
   -1
100
AcDbLine
 10
-10
 20
5.9
 11
-10
 21
-10
  0
LINE
  5
195
100
AcDbEntity
  8
SD_card_SPI
  6
ByLayer
 62
  256
370
   -1
100
AcDbLine
 10
21.5
 20
-8.5
 11
21.5
 21
2.9
  0
LINE
  5
196
100
AcDbEntity
  8
SD_card_SPI
  6
ByLayer
 62
  256
370
   -1
100
AcDbLine
 10
15.8
 20
4.9
 11
19.5
 21
4.9
  0
LINE
  5
197
100
AcDbEntity
  8
SD_card_SPI
  6
ByLayer
 62
  256
370
   -1
100
AcDbLine
 10
20.5
 20
4.4
 11
20.5
 21
-11.5
  0
LINE
  5
198
100
AcDbEntity
  8
SD_card_SPI
  6
ByLayer
 62
  256
370
   -1
100
AcDbLine
 10
19.5
 20
4.9
 11
20.5
 21
4.4
  0
LINE
  5
199
100
AcDbEntity
  8
SD_card_SPI
  6
ByLayer
 62
  256
370
   -1
100
AcDbLine
 10
20.6
 20
3.4
 11
21.5
 21
2.9
  0
LINE
  5
19A
100
AcDbEntity
  8
SD_card_SPI
  6
ByLayer
 62
  256
370
   -1
100
AcDbLine
 10
15.8
 20
3.4
 11
20.6
 21
3.4
  0
ENDSEC
  0
SECTION
  2
OBJECTS
  0
DICTIONARY
  5
C
330
0
100
AcDbDictionary
281
    1
  3
ACAD_GROUP
350
D
  0
DICTIONARY
  5
D
330
C
100
AcDbDictionary
281
    1
  0
ENDSEC
  0
EOF
